<svg width="24" height="24" viewBox="0 0 24 24" fill="none" xmlns="http://www.w3.org/2000/svg">
<path fill-rule="evenodd" clip-rule="evenodd" d="M11.9988 2.1001C9.77355 2.1001 7.94416 2.88789 6.68667 4.37443C5.44654 5.84044 4.84881 7.8832 4.84881 10.2501L4.84881 11.0001C4.84881 13.4652 4.16558 14.9249 3.19246 15.8682C2.81092 16.2381 2.77131 16.7499 2.9077 17.1264C3.0464 17.5094 3.4265 17.9001 3.99836 17.9001H19.9992C20.5711 17.9001 20.9512 17.5094 21.0899 17.1264C21.2262 16.7499 21.1866 16.2381 20.8051 15.8682C19.832 14.9249 19.1487 13.4652 19.1487 11.0001L19.1487 10.2501C19.1487 7.8832 18.551 5.84044 17.3109 4.37443C16.0534 2.88789 14.224 2.1001 11.9988 2.1001ZM6.6488 10.2501C6.6488 8.16522 7.17606 6.58298 8.06092 5.53693C8.92842 4.51142 10.224 3.9001 11.9988 3.9001C13.7735 3.9001 15.0691 4.51142 15.9366 5.53693C16.8215 6.58297 17.3488 8.16522 17.3488 10.2501L17.3488 11.0001C17.3488 13.1628 17.8169 14.8273 18.6675 16.1001H5.33009C6.18066 14.8273 6.6488 13.1628 6.6488 11.0001L6.6488 10.2501Z" fill="#171719"/>
<path d="M9.99879 20.0999C9.50174 20.0999 9.09879 20.5029 9.09879 20.9999C9.09879 21.497 9.50174 21.8999 9.99879 21.8999H13.9988C14.4958 21.8999 14.8988 21.497 14.8988 20.9999C14.8988 20.5029 14.4958 20.0999 13.9988 20.0999H9.99879Z" fill="#171719"/>
</svg>
