<svg width="10" height="10" viewBox="0 0 10 10" fill="none" xmlns="http://www.w3.org/2000/svg">
<path d="M10 2.32143V3.48214C10 3.58476 9.95987 3.68317 9.88842 3.75573C9.81698 3.82828 9.72008 3.86905 9.61905 3.86905C9.51801 3.86905 9.42112 3.82828 9.34967 3.75573C9.27823 3.68317 9.2381 3.58476 9.2381 3.48214V2.32143C9.2381 2.21882 9.27823 2.1204 9.34967 2.04785C9.42112 1.97529 9.51801 1.93452 9.61905 1.93452C9.72008 1.93452 9.81698 1.97529 9.88842 2.04785C9.95987 2.1204 10 2.21882 10 2.32143ZM0.380952 1.93452C0.279918 1.93452 0.183021 1.97529 0.111578 2.04785C0.0401359 2.1204 0 2.21882 0 2.32143V3.48214C0 3.58476 0.0401359 3.68317 0.111578 3.75573C0.183021 3.82828 0.279918 3.86905 0.380952 3.86905C0.481987 3.86905 0.578884 3.82828 0.650326 3.75573C0.721769 3.68317 0.761905 3.58476 0.761905 3.48214V2.32143C0.761905 2.21882 0.721769 2.1204 0.650326 2.04785C0.578884 1.97529 0.481987 1.93452 0.380952 1.93452ZM9.19048 1.54762V9.22619C9.19048 9.43142 9.11021 9.62824 8.96732 9.77336C8.82444 9.91848 8.63064 10 8.42857 10H7.66667C7.4646 10 7.2708 9.91848 7.12792 9.77336C6.98503 9.62824 6.90476 9.43142 6.90476 9.22619V8.83929H3.09524V9.22619C3.09524 9.43142 3.01497 9.62824 2.87208 9.77336C2.7292 9.91848 2.5354 10 2.33333 10H1.57143C1.36936 10 1.17557 9.91848 1.03268 9.77336C0.889796 9.62824 0.809524 9.43142 0.809524 9.22619V1.54762C0.809524 1.13717 0.970068 0.743522 1.25584 0.453287C1.54161 0.163052 1.92919 0 2.33333 0H7.66667C8.07081 0 8.45839 0.163052 8.74416 0.453287C9.02993 0.743522 9.19048 1.13717 9.19048 1.54762ZM3.85714 5.61012C3.85714 5.49534 3.82363 5.38313 3.76084 5.28769C3.69805 5.19225 3.60881 5.11787 3.50439 5.07394C3.39998 5.03001 3.28508 5.01852 3.17423 5.04091C3.06339 5.06331 2.96157 5.11858 2.88165 5.19975C2.80174 5.28091 2.74731 5.38432 2.72527 5.4969C2.70322 5.60948 2.71453 5.72617 2.75778 5.83221C2.80103 5.93826 2.87427 6.0289 2.96825 6.09267C3.06222 6.15644 3.1727 6.19048 3.28571 6.19048C3.43727 6.19048 3.58261 6.12933 3.68978 6.02049C3.79694 5.91166 3.85714 5.76404 3.85714 5.61012ZM7.28572 5.61012C7.28572 5.49534 7.2522 5.38313 7.18941 5.28769C7.12662 5.19225 7.03738 5.11787 6.93296 5.07394C6.82855 5.03001 6.71365 5.01852 6.60281 5.04091C6.49196 5.06331 6.39014 5.11858 6.31023 5.19975C6.23031 5.28091 6.17589 5.38432 6.15384 5.4969C6.13179 5.60948 6.14311 5.72617 6.18636 5.83221C6.22961 5.93826 6.30285 6.0289 6.39682 6.09267C6.49079 6.15644 6.60127 6.19048 6.71429 6.19048C6.86584 6.19048 7.01118 6.12933 7.11835 6.02049C7.22551 5.91166 7.28572 5.76404 7.28572 5.61012ZM8.42857 1.93452H1.57143V3.86905H8.42857V1.93452Z" fill="white"/>
</svg>
