<svg width="68" height="67" viewBox="0 0 68 67" fill="none" xmlns="http://www.w3.org/2000/svg">
<g clip-path="url(#clip0_2609_16813)">
<circle cx="34" cy="34" r="70" fill="#D4D4D4"/>
<path d="M37.2575 74.1394C35.621 75.7802 35.7777 76.4372 35.8918 77.0942C37.0804 79.5596 40.5712 79.4002 43.0404 79.0734C45.5095 78.7465 47.2141 77.518 43.8969 75.5437C41.9012 74.3562 41.1672 73.0324 40.9867 72.1816L40.9288 66.9158L37.5231 66.9109L37.2575 74.1378V74.1394Z" fill="url(#paint0_linear_2609_16813)"/>
<path d="M30.1327 74.1296L30.2808 74.2807C31.7555 75.8147 31.6039 76.4504 31.4916 77.0877C30.2962 79.5497 26.8053 79.3805 24.3362 79.0504C21.867 78.7186 20.1659 77.4851 23.4898 75.5175C25.489 74.3349 26.2263 73.0127 26.4102 72.1635L26.4818 66.8994L29.8875 66.9043L30.1327 74.1312V74.1296Z" fill="url(#paint1_linear_2609_16813)"/>
<path d="M22.5613 55.33C19.927 57.9629 18.4506 60.7091 17.0509 59.405C15.6511 58.1025 16.6507 54.9112 19.285 52.2799C21.9193 49.647 25.1888 48.5696 26.5885 49.8737C27.9883 51.1762 25.1956 52.6988 22.5613 55.33Z" fill="url(#paint2_linear_2609_16813)"/>
<path d="M46.2249 60.8978C46.4224 61.2723 46.5757 61.6566 46.683 62.0525L46.6932 62.0788H46.6898C46.8039 62.5058 46.8635 62.946 46.8618 63.3927C46.855 67.8832 40.866 71.5147 33.4842 71.5065C26.1023 71.4983 20.1218 67.8504 20.127 63.3599C20.127 62.9131 20.1883 62.4729 20.3024 62.0459H20.2989L20.3126 62.0114C20.3977 61.7043 20.5101 61.4053 20.6497 61.1113L26.2811 46.04L40.3296 46.0581L46.2249 60.8995V60.8978Z" fill="url(#paint3_linear_2609_16813)"/>
<path d="M33.738 9.0928C41.1624 9.10265 47.5004 12.0115 50.0173 16.1045C53.3446 20.8332 57.9475 30.0639 56.5732 37.974C55.967 44.3156 45.9866 49.3481 33.7686 49.3333C22.0104 49.3185 12.3348 44.6326 11.1002 38.626C9.73452 33.7693 10.4582 26.1039 17.2884 16.3147C19.7081 12.0952 26.162 9.08294 33.738 9.0928Z" fill="url(#paint4_linear_2609_16813)"/>
<path d="M33.6217 32.9102C35.0316 32.856 36.2645 34.1043 36.7158 34.7564C38.2653 37.1774 41.3101 37.9083 42.64 37.9707C44.7958 37.974 44.9746 38.8297 44.7941 39.2567C42.8511 41.1784 39.081 39.7988 37.356 39.3389C36.1044 39.0054 34.6723 39.0481 33.7443 39.058C33.7136 39.0596 33.683 39.058 33.6506 39.058C33.5893 39.058 33.5314 39.058 33.4769 39.058C32.5982 39.0432 31.1065 39.0005 29.8635 39.329C28.1385 39.7856 24.3632 41.1554 22.4254 39.2288C22.2466 38.8001 22.4254 37.946 24.5829 37.9477C25.9128 37.8886 28.9609 37.1642 30.5157 34.7465C30.9686 34.0961 32.2049 32.8495 33.6149 32.907H33.62L33.6217 32.9102Z" fill="#FF8800"/>
<path d="M28.346 29.123C28.348 27.5809 27.6634 26.33 26.817 26.329C25.9706 26.328 25.2828 27.5773 25.2809 29.1194C25.2789 30.6615 25.9635 31.9124 26.8099 31.9134C27.6563 31.9144 28.3441 30.6651 28.346 29.123Z" fill="#111311"/>
<path d="M42.137 29.1394C42.139 27.5973 41.4544 26.3464 40.608 26.3454C39.7616 26.3444 39.0738 27.5937 39.0719 29.1358C39.0699 30.6779 39.7545 31.9288 40.6009 31.9298C41.4473 31.9308 42.1351 30.6815 42.137 29.1394Z" fill="#111311"/>
<path d="M45.7723 48.9914C43.4432 52.586 42.332 56.1707 40.6809 54.7415C39.0299 53.3123 39.578 49.2398 41.9071 45.6451C44.2362 42.0505 47.4614 40.2962 49.1127 41.7274C50.7637 43.1565 48.0998 45.3989 45.7723 48.9914Z" fill="url(#paint5_linear_2609_16813)"/>
</g>
<path fill-rule="evenodd" clip-rule="evenodd" d="M55.4407 7.89924C55.4407 8.83417 54.6707 9.59273 53.7204 9.59273C52.77 9.59273 52 8.83417 52 7.89924C51.9934 6.04237 52.6545 4.24179 53.8667 2.81765C55.0788 1.39362 56.7639 0.437025 58.6241 0.117819C60.4841 -0.202468 62.3991 0.135133 64.0303 1.07114C65.6604 2.00715 66.9033 3.47989 67.5369 5.22972C68.1694 6.97946 68.154 8.89381 67.4907 10.6326C66.8274 12.3726 65.5614 13.8247 63.9148 14.7339C63.2373 15.0975 62.6741 15.6374 62.2858 16.2932C61.8986 16.95 61.7006 17.6977 61.7149 18.4574C61.7149 19.3923 60.945 20.1498 59.9946 20.1498C59.0442 20.1498 58.2743 19.3923 58.2743 18.4574C58.2611 17.0983 58.6251 15.7619 59.3247 14.591C60.0243 13.4202 61.0351 12.4582 62.2473 11.809C63.1812 11.2885 63.8984 10.4596 64.2734 9.46948C64.6474 8.48045 64.6551 7.39186 64.2932 6.39737C63.9325 5.40294 63.2263 4.56538 62.299 4.03298C61.3718 3.50058 60.2828 3.30689 59.2247 3.48651C58.1676 3.66613 57.2073 4.20719 56.5155 5.01442C55.8236 5.82167 55.4429 6.84314 55.4407 7.89924ZM59.9946 21.46C60.7227 21.46 61.3783 21.8907 61.6566 22.5529C61.936 23.2141 61.782 23.9748 61.2672 24.4812C60.7524 24.9876 59.9781 25.1391 59.306 24.8654C58.6339 24.5916 58.195 23.9456 58.195 23.2303C58.195 22.2521 59.0013 21.46 59.9946 21.46Z" fill="#F24343"/>
<defs>
<linearGradient id="paint0_linear_2609_16813" x1="40.7829" y1="66.9109" x2="40.7829" y2="79.256" gradientUnits="userSpaceOnUse">
<stop stop-color="#FFB53D"/>
<stop offset="1" stop-color="#FFEE3B"/>
</linearGradient>
<linearGradient id="paint1_linear_2609_16813" x1="26.5996" y1="66.8994" x2="26.5996" y2="79.2375" gradientUnits="userSpaceOnUse">
<stop stop-color="#FFB53D"/>
<stop offset="1" stop-color="#FFEC3B"/>
</linearGradient>
<linearGradient id="paint2_linear_2609_16813" x1="21.7623" y1="54.6141" x2="22.7231" y2="57.7757" gradientUnits="userSpaceOnUse">
<stop stop-color="#FFEC3B"/>
<stop offset="1" stop-color="#FFC62A"/>
</linearGradient>
<linearGradient id="paint3_linear_2609_16813" x1="31.3951" y1="47.2801" x2="31.3951" y2="77.5836" gradientUnits="userSpaceOnUse">
<stop stop-color="#FFEE2A"/>
<stop offset="0.41" stop-color="#FFEE2A"/>
<stop offset="1" stop-color="#FFC62A"/>
</linearGradient>
<linearGradient id="paint4_linear_2609_16813" x1="33.6881" y1="1.70166" x2="33.6881" y2="29.2952" gradientUnits="userSpaceOnUse">
<stop stop-color="#FFC62A"/>
<stop offset="1" stop-color="#FFEF3C"/>
</linearGradient>
<linearGradient id="paint5_linear_2609_16813" x1="40.5525" y1="59.6426" x2="48.5379" y2="45.9747" gradientUnits="userSpaceOnUse">
<stop stop-color="#FFEE3C"/>
<stop offset="1" stop-color="#FFC62A"/>
</linearGradient>
<clipPath id="clip0_2609_16813">
<rect width="67" height="67" rx="33.5" fill="white"/>
</clipPath>
</defs>
</svg>
