<svg width="27" height="37" viewBox="0 0 27 37" fill="none" xmlns="http://www.w3.org/2000/svg">
<path d="M5.28076 33.9191C6.39777 33.2257 6.78339 31.6331 6.86995 31.2391C7.18188 31.3995 8.15908 31.9053 8.45837 31.9706L8.13516 32.9547C7.84665 33.6334 8.88377 34.2337 9.23772 34.3801C9.94853 34.7238 11.2509 35.5198 10.7738 35.9543C10.1774 36.4973 7.80989 35.6846 6.08454 35.0923L6.08454 35.0923C4.70425 34.6185 4.97357 34.1127 5.28076 33.9191Z" fill="url(#paint0_linear_2515_20339)"/>
<path d="M14.1573 35.9613C14.916 34.404 14.4245 32.8404 14.1992 32.4007C14.5626 32.2806 15.7053 31.9809 16.1182 31.7991L16.4127 32.8568C16.6339 33.7275 17.7814 33.6447 18.3275 33.4946C19.4656 33.2395 21.6898 32.9281 21.4812 33.7229C21.2205 34.7165 18.66 35.5625 16.0994 36.4085C14.051 37.0853 13.9512 36.3924 14.1573 35.9613Z" fill="url(#paint1_linear_2515_20339)"/>
<path d="M22.105 7.18119C22.5326 8.10889 22.8288 9.09425 23.1205 10.065L23.4497 11.4884C23.4245 11.503 23.3914 11.5099 23.347 11.4789L23.0474 11.2681C22.9951 11.2311 22.8871 11.1975 22.8174 11.2336C22.7704 11.2577 22.7216 11.3274 22.7033 11.4083L22.3767 12.83C22.1773 13.6957 21.5459 14.4272 20.6906 14.7362C20.3858 14.8463 20.1001 15.0907 20.175 15.441C20.2316 15.7043 20.5495 15.8188 20.8003 15.842C21.761 15.9307 22.3968 14.7758 23.7624 14.4247C23.6178 15.6837 23.1284 16.8601 22.2026 17.8127C20.587 19.4762 18.1605 20.3867 15.9431 20.8118L16.8236 22.8858L18.4645 27.008C18.879 28.0493 18.9261 29.1087 18.265 30.0579C17.6824 30.8944 16.8532 31.5243 15.9118 31.9443C15.1018 32.3048 14.2692 32.489 13.427 32.6362C12.9009 32.7282 12.3122 32.779 11.7643 32.7128L9.90053 32.4864C9.86221 32.4821 9.78992 32.4227 9.74463 32.4795C9.7185 32.5114 9.72983 32.5733 9.72809 32.6258C8.14908 32.347 6.69111 31.8548 5.48486 30.6482C4.68447 29.8479 4.34394 28.7636 4.68883 27.662L5.50664 25.6457L6.40458 23.3755C6.75557 22.4891 7.11004 21.638 7.56641 20.7456C5.27584 20.3187 2.69612 19.3549 1.13539 17.4582C0.569284 16.7706 0.269683 16.0322 0.13643 15.1639C-0.150109 13.2904 0.0214597 11.404 0.58757 9.61232C1.27648 7.43162 2.34688 5.39463 3.64371 3.47813C3.91544 3.0771 4.1802 2.74665 4.55296 2.42135C5.64251 1.47041 6.92017 0.82498 8.31803 0.448908C10.6757 -0.185336 13.1901 -0.143168 15.5111 0.547874C16.9203 0.966974 18.7127 1.88004 19.6655 3.10722C20.6488 4.37399 21.4518 5.76124 22.1068 7.18291L22.105 7.18119ZM20.8395 8.53918C20.7167 8.44193 20.5687 8.42902 20.438 8.50045C19.8423 8.82661 20.6262 11.5908 21.3273 11.2724C21.7906 11.0624 21.6948 9.21645 20.8395 8.53918Z" fill="white"/>
<path d="M22.105 7.18119C22.5326 8.10889 22.8288 9.09425 23.1205 10.065L23.4497 11.4884C23.4245 11.503 23.3914 11.5099 23.347 11.4789L23.0474 11.2681C22.9951 11.2311 22.8871 11.1975 22.8174 11.2336C22.7704 11.2577 22.7216 11.3274 22.7033 11.4083L22.3767 12.83C22.1773 13.6957 21.5459 14.4272 20.6906 14.7362C20.3858 14.8463 20.1001 15.0907 20.175 15.441C20.2316 15.7043 20.5887 15.4178 20.8395 15.441C21.8002 15.5296 24.0379 12.6935 23.7624 14.4247C23.6178 15.6837 23.1284 16.8601 22.2026 17.8127C20.587 19.4762 18.1605 20.3867 15.9431 20.8118L16.8236 22.8858L18.4645 27.008C18.879 28.0493 18.9261 29.1087 18.265 30.0579C17.6824 30.8944 16.8532 31.5243 15.9118 31.9443C15.1018 32.3048 14.2982 32.5547 13.456 32.7019C12.93 32.794 12.7157 32.7879 11.7577 32.831L9.92871 32.6588C9.88516 32.6588 9.77153 32.6335 9.72809 32.6258C8.14907 32.347 6.69111 31.8548 5.48486 30.6482C4.68447 29.8479 4.34394 28.7636 4.68883 27.662L5.50664 25.6457L6.40458 23.3755C6.75557 22.4891 7.11004 21.638 7.56641 20.7456C5.27584 20.3187 2.69612 19.3549 1.13539 17.4582C0.569284 16.7706 0.269683 16.0322 0.13643 15.1639C-0.150109 13.2904 0.0214597 11.404 0.58757 9.61232C1.27648 7.43162 2.34688 5.39464 3.64371 3.47813C3.91544 3.0771 4.1802 2.74665 4.55296 2.42135C5.64251 1.47041 6.92017 0.82498 8.31803 0.448908C10.6757 -0.185336 13.1901 -0.143168 15.5111 0.547874C16.9203 0.966974 18.7127 1.88004 19.6655 3.10723C20.6488 4.37399 21.4518 5.76124 22.1068 7.18291L22.105 7.18119Z" fill="url(#paint2_linear_2515_20339)"/>
<path d="M26.3503 12.1704C26.1518 12.0267 26.1387 11.7763 26.2484 11.5603C26.4148 11.7006 26.4958 11.9579 26.3503 12.1704Z" fill="#D29B0C"/>
<path d="M20.4962 15.7166C19.4144 15.0486 21.0759 14.3707 21.5909 14.0669C26.1495 14.1546 26.0683 15.7778 24.2101 16.1213C22.7235 16.396 20.8141 15.9337 20.4962 15.7166Z" fill="#E07800"/>
<path d="M23.6268 14.2954C22.2612 14.6465 21.6263 15.8005 20.6648 15.7127C20.4139 15.6895 20.096 15.5759 20.0394 15.3117C19.9645 14.9615 20.2502 14.7171 20.555 14.6069C21.4103 14.298 22.0417 13.5673 22.2412 12.7007L22.5678 11.2791C22.5861 11.1982 22.6357 11.1285 22.6819 11.1044C22.7515 11.0682 22.8595 11.1018 22.9118 11.1388L23.2114 11.3496C23.2558 11.3806 23.2889 11.3746 23.3142 11.3591C24.0997 11.3763 24.9881 10.687 25.7162 10.7636C26.2301 10.8178 26.5288 11.2713 26.588 11.736C26.6812 12.4667 26.7187 13.4537 26.0315 13.6482L25.0203 13.9357L23.626 14.2937L23.6268 14.2954Z" fill="#FF8800"/>
<g filter="url(#filter0_dd_2515_20339)">
<path d="M7.8258 23.7484C6.02338 23.0398 4.31738 23.0735 4.83828 21.7798C5.35918 20.4862 7.24261 20.0118 9.04502 20.7204C10.8474 21.429 11.8863 23.0521 11.3654 24.3458C10.8445 25.6395 9.62822 24.457 7.8258 23.7484Z" fill="url(#paint3_linear_2515_20339)"/>
</g>
<path d="M16.8555 9.68433C17.7269 9.73247 21.054 9.78018 20.03 10.6686C19.0876 10.7554 17.5041 11.7541 17.2699 12.3108" stroke="#111311" stroke-width="0.543672" stroke-linecap="round"/>
<path d="M22.4992 7.92108C22.3983 8.07368 22.0336 8.59753 22.1911 9.0158C22.3723 9.10641 22.5742 9.15169 22.9161 9.33291" stroke="#111311" stroke-width="0.543672" stroke-linecap="round"/>
<path d="M10.1999 3.19384C9.14414 3.85791 7.24994 5.39725 8.43038 6.24734C9.90592 7.30996 10.4141 4.45312 10.1999 3.19384Z" fill="#61ABFF"/>
<path d="M5.45775 7.18035C4.40196 7.84442 2.50775 9.38376 3.68819 10.2339C5.16373 11.2965 5.67192 8.43963 5.45775 7.18035Z" fill="#61ABFF"/>
<defs>
<filter id="filter0_dd_2515_20339" x="4.59906" y="20.3916" width="7.04406" height="5.1584" filterUnits="userSpaceOnUse" color-interpolation-filters="sRGB">
<feFlood flood-opacity="0" result="BackgroundImageFix"/>
<feColorMatrix in="SourceAlpha" type="matrix" values="0 0 0 0 0 0 0 0 0 0 0 0 0 0 0 0 0 0 127 0" result="hardAlpha"/>
<feOffset dy="0.626174"/>
<feComposite in2="hardAlpha" operator="out"/>
<feColorMatrix type="matrix" values="0 0 0 0 0 0 0 0 0 0 0 0 0 0 0 0 0 0 0.1 0"/>
<feBlend mode="normal" in2="BackgroundImageFix" result="effect1_dropShadow_2515_20339"/>
<feColorMatrix in="SourceAlpha" type="matrix" values="0 0 0 0 0 0 0 0 0 0 0 0 0 0 0 0 0 0 127 0" result="hardAlpha"/>
<feOffset dy="0.26836"/>
<feGaussianBlur stdDeviation="0.0715627"/>
<feComposite in2="hardAlpha" operator="out"/>
<feColorMatrix type="matrix" values="0 0 0 0 0 0 0 0 0 0 0 0 0 0 0 0 0 0 0.25 0"/>
<feBlend mode="normal" in2="effect1_dropShadow_2515_20339" result="effect2_dropShadow_2515_20339"/>
<feBlend mode="normal" in="SourceGraphic" in2="effect2_dropShadow_2515_20339" result="shape"/>
</filter>
<linearGradient id="paint0_linear_2515_20339" x1="9.25187" y1="31.169" x2="6.70143" y2="35.3379" gradientUnits="userSpaceOnUse">
<stop stop-color="#FFB53D"/>
<stop offset="1" stop-color="#FDE800"/>
</linearGradient>
<linearGradient id="paint1_linear_2515_20339" x1="16.2837" y1="30.7137" x2="17.0066" y2="36.2006" gradientUnits="userSpaceOnUse">
<stop stop-color="#FFB53D"/>
<stop offset="1" stop-color="#FDE800"/>
</linearGradient>
<linearGradient id="paint2_linear_2515_20339" x1="-1.11013" y1="-7.31278" x2="12.1372" y2="8.93105" gradientUnits="userSpaceOnUse">
<stop stop-color="#FFC62A"/>
<stop offset="1" stop-color="#FFED2A"/>
</linearGradient>
<linearGradient id="paint3_linear_2515_20339" x1="9.16011" y1="21.7895" x2="6.00316" y2="24.2414" gradientUnits="userSpaceOnUse">
<stop stop-color="#FFED2A"/>
<stop offset="1" stop-color="#FFC62A"/>
</linearGradient>
</defs>
</svg>
