<svg width="27" height="37" viewBox="0 0 27 37" fill="none" xmlns="http://www.w3.org/2000/svg">
<path d="M15.3592 34.3018C14.5108 35.1671 14.5921 35.5135 14.6512 35.86C15.2674 37.1601 17.0772 37.076 18.3573 36.9037C19.6374 36.7313 20.5211 36.0835 18.8013 35.0424C17.7667 34.4161 17.3862 33.718 17.2926 33.2694L17.2626 30.4925L15.4969 30.4899L15.3592 34.3009V34.3018Z" fill="url(#paint0_linear_2515_20285)"/>
<path d="M11.6604 34.2964L11.7372 34.3761C12.5017 35.185 12.4231 35.5202 12.3649 35.8563C11.7451 37.1546 9.93535 37.0654 8.65527 36.8913C7.37518 36.7164 6.49325 36.0659 8.21651 35.0283C9.25294 34.4047 9.6352 33.7074 9.73054 33.2596L9.76762 30.4836L11.5333 30.4862L11.6604 34.2973V34.2964Z" fill="url(#paint1_linear_2515_20285)"/>
<path d="M7.7396 24.3828C6.37388 25.7712 5.60847 27.2194 4.8828 26.5317C4.15712 25.8448 4.67534 24.1619 6.04106 22.7744C7.40677 21.3859 9.10178 20.8177 9.82746 21.5055C10.5531 22.1923 9.10531 22.9952 7.7396 24.3828Z" fill="url(#paint2_linear_2515_20285)"/>
<path d="M19.0795 24.3975C20.4417 25.7894 21.2035 27.2393 21.931 26.5542C22.6584 25.8691 22.1446 24.1853 20.7824 22.7934C19.4202 21.4015 17.727 20.829 16.9996 21.515C16.2721 22.2001 17.7182 23.0065 19.0795 24.3975Z" fill="url(#paint3_linear_2515_20285)"/>
<path d="M20.0066 27.319C20.109 27.5165 20.1885 27.7191 20.2441 27.9279L20.2494 27.9417H20.2476C20.3068 28.1669 20.3377 28.399 20.3368 28.6346C20.3333 31.0027 17.2284 32.9177 13.4014 32.9134C9.57437 32.909 6.47392 30.9853 6.47656 28.6173C6.47656 28.3817 6.50835 28.1496 6.56749 27.9244H6.56573L6.57279 27.9062C6.61693 27.7442 6.6752 27.5866 6.74759 27.4316L9.66707 19.4839L16.9503 19.4934L20.0066 27.3198V27.319Z" fill="url(#paint4_linear_2515_20285)"/>
<path d="M13.5322 1.27138e-05C17.3812 0.00520955 20.6671 1.53914 21.9719 3.69756C23.6969 6.19117 26.0832 11.0589 25.3707 15.2302C25.0565 18.5744 19.8823 21.2282 13.5481 21.2204C7.4522 21.2126 2.43603 18.7415 1.79598 15.5741C1.08796 13.0129 1.46316 8.97061 5.00414 3.80842C6.25863 1.58331 9.6045 -0.00518412 13.5322 1.27138e-05Z" fill="url(#paint5_linear_2515_20285)"/>
<path d="M13.5322 1.27138e-05C17.3812 0.00520955 20.6671 1.53914 21.9719 3.69756C23.6969 6.19117 26.0832 11.0589 25.3707 15.2302C25.0565 18.5744 19.8823 21.2282 13.5481 21.2204C7.4522 21.2126 2.43603 18.7415 1.79598 15.5741C1.08796 13.0129 1.46316 8.97061 5.00414 3.80842C6.25863 1.58331 9.6045 -0.00518412 13.5322 1.27138e-05Z" fill="url(#paint6_linear_2515_20285)"/>
<path d="M13.4723 12.56C14.2033 12.5314 14.8424 13.1897 15.0764 13.5335C15.8797 14.8102 17.4582 15.1957 18.1477 15.2286C19.2653 15.2303 19.358 15.6816 19.2645 15.9068C18.2572 16.9201 16.3026 16.1926 15.4083 15.9501C14.7594 15.7742 14.017 15.7968 13.5359 15.802C13.52 15.8028 13.5041 15.802 13.4873 15.802C13.4555 15.802 13.4255 15.802 13.3972 15.802C12.9417 15.7942 12.1684 15.7716 11.5239 15.9449C10.6296 16.1857 8.67241 16.908 7.66776 15.892C7.57507 15.666 7.66776 15.2156 8.78629 15.2164C9.47577 15.1853 11.056 14.8033 11.862 13.5283C12.0969 13.1853 12.7378 12.5279 13.4688 12.5583H13.4714L13.4723 12.56Z" fill="#FF8800"/>
<path d="M10.7393 10.5628C10.7404 9.74959 10.3854 9.08994 9.94664 9.08941C9.50783 9.08888 9.15128 9.74769 9.15027 10.5609C9.14926 11.3741 9.50416 12.0338 9.94297 12.0343C10.3818 12.0348 10.7383 11.376 10.7393 10.5628Z" fill="#111311"/>
<path d="M17.8878 10.5713C17.8888 9.75808 17.5339 9.09842 17.0951 9.09789C16.6563 9.09737 16.2997 9.75617 16.2987 10.5694C16.2977 11.3826 16.6526 12.0422 17.0914 12.0428C17.5302 12.0433 17.8868 11.3845 17.8878 10.5713Z" fill="#111311"/>
<defs>
<linearGradient id="paint0_linear_2515_20285" x1="17.1869" y1="30.4899" x2="17.1869" y2="37" gradientUnits="userSpaceOnUse">
<stop stop-color="#FFB53D"/>
<stop offset="1" stop-color="#FFEE3B"/>
</linearGradient>
<linearGradient id="paint1_linear_2515_20285" x1="9.82873" y1="30.4836" x2="9.82873" y2="36.99" gradientUnits="userSpaceOnUse">
<stop stop-color="#FFB53D"/>
<stop offset="1" stop-color="#FFEC3B"/>
</linearGradient>
<linearGradient id="paint2_linear_2515_20285" x1="7.32536" y1="24.0053" x2="7.83923" y2="25.6676" gradientUnits="userSpaceOnUse">
<stop stop-color="#FFEC3B"/>
<stop offset="1" stop-color="#FFC62A"/>
</linearGradient>
<linearGradient id="paint3_linear_2515_20285" x1="19.4792" y1="24.0199" x2="18.9613" y2="25.681" gradientUnits="userSpaceOnUse">
<stop stop-color="#FFEE3C"/>
<stop offset="1" stop-color="#FFC62A"/>
</linearGradient>
<linearGradient id="paint4_linear_2515_20285" x1="12.3184" y1="14.4794" x2="12.2984" y2="38.48" gradientUnits="userSpaceOnUse">
<stop stop-color="#FFEE2A"/>
<stop offset="0.41" stop-color="#FFEE2A"/>
<stop offset="1" stop-color="#FFC62A"/>
</linearGradient>
<linearGradient id="paint5_linear_2515_20285" x1="13.5063" y1="-31.2676" x2="13.5063" y2="21.6102" gradientUnits="userSpaceOnUse">
<stop stop-color="#FFC62A"/>
<stop offset="1" stop-color="#FFEF3C"/>
</linearGradient>
<linearGradient id="paint6_linear_2515_20285" x1="13.5063" y1="-7.03" x2="13.5063" y2="8.14" gradientUnits="userSpaceOnUse">
<stop stop-color="#FFC62A"/>
<stop offset="1" stop-color="#FFEF3C"/>
</linearGradient>
</defs>
</svg>
