<svg width="27" height="37" viewBox="0 0 27 37" fill="none" xmlns="http://www.w3.org/2000/svg">
<path d="M6.13697 33.3958C7.22367 32.7132 7.59882 31.1451 7.68303 30.7572C7.9865 30.9151 8.93719 31.4131 9.22835 31.4774L8.91391 32.4464C8.63323 33.1145 9.64221 33.7056 9.98655 33.8498C10.6781 34.1882 11.9451 34.9719 11.4809 35.3997C10.9007 35.9343 8.59747 35.1342 6.91894 34.551L6.91894 34.551C5.57612 34.0845 5.83812 33.5865 6.13697 33.3958Z" fill="url(#paint0_linear_2515_20338)"/>
<path d="M14.7716 34.6866C15.5097 33.1533 15.0315 31.6139 14.8123 31.1809C15.1659 31.0627 16.2775 30.7676 16.6793 30.5886L16.9658 31.63C17.181 32.4872 18.2973 32.4058 18.8286 32.2579C19.9358 32.0068 22.0996 31.7002 21.8967 32.4828C21.6431 33.461 19.1521 34.294 16.661 35.1269C14.6681 35.7933 14.571 35.1111 14.7716 34.6866Z" fill="url(#paint1_linear_2515_20338)"/>
<path d="M22.5051 6.98712C22.9211 7.88975 23.2092 8.84847 23.4931 9.79297L23.8133 11.1779C23.7888 11.1921 23.7566 11.1988 23.7134 11.1687L23.4219 10.9635C23.371 10.9275 23.266 10.8949 23.1982 10.93C23.1524 10.9535 23.105 11.0213 23.0872 11.1L22.7695 12.4833C22.5754 13.3256 21.9611 14.0373 21.1291 14.3379C20.8325 14.4451 20.5546 14.6829 20.6275 15.0237C20.6826 15.2799 20.9918 15.3913 21.2358 15.4139C22.1704 15.5001 22.789 14.3764 24.1175 14.0348C23.9769 15.2598 23.5007 16.4044 22.6 17.3313C21.0283 18.9499 18.6677 19.8358 16.5104 20.2494L17.3671 22.2673L18.9634 26.2781C19.3667 27.2912 19.4124 28.322 18.7693 29.2455C18.2025 30.0594 17.3959 30.6723 16.4799 31.0809C15.6919 31.4318 14.8819 31.611 14.0626 31.7542C13.5508 31.8437 12.978 31.8931 12.4451 31.8287L10.6318 31.6085C10.5946 31.6043 10.5242 31.5465 10.4802 31.6018C10.4548 31.6327 10.4658 31.693 10.4641 31.7441C8.92792 31.4728 7.50953 30.9939 6.33601 29.8199C5.55734 29.0412 5.22605 27.9862 5.56158 26.9145L6.35719 24.9526L7.23077 22.7438C7.57223 21.8813 7.91708 21.0532 8.36107 20.1849C6.13266 19.7696 3.62295 18.8318 2.10458 16.9864C1.55383 16.3174 1.26236 15.5989 1.13273 14.7541C0.853964 12.9312 1.02088 11.0958 1.57162 9.35254C2.24184 7.23078 3.28319 5.24884 4.54482 3.38413C4.80918 2.99394 5.06675 2.67242 5.4294 2.35591C6.48938 1.43067 7.73237 0.802684 9.09229 0.436776C11.3859 -0.180327 13.8321 -0.139299 16.0902 0.533067C17.4611 0.940841 19.2049 1.82923 20.1318 3.02325C21.0884 4.25578 21.8696 5.60554 22.5068 6.98879L22.5051 6.98712ZM21.274 8.3084C21.1545 8.21379 21.0105 8.20123 20.8834 8.27072C20.3038 8.58807 21.0664 11.2775 21.7485 10.9677C22.1992 10.7634 22.106 8.96737 21.274 8.3084Z" fill="white"/>
<path d="M22.5051 6.98712C22.9211 7.88975 23.2092 8.84847 23.4931 9.79297L23.8133 11.1779C23.7888 11.1921 23.7566 11.1988 23.7134 11.1687L23.4219 10.9635C23.371 10.9275 23.266 10.8949 23.1982 10.93C23.1524 10.9535 23.105 11.0213 23.0872 11.1L22.7695 12.4833C22.5754 13.3256 21.9611 14.0373 21.1291 14.3379C20.8325 14.4451 20.5546 14.6829 20.6275 15.0237C20.6826 15.2799 21.03 15.0011 21.274 15.0237C22.2086 15.1099 24.3856 12.3504 24.1175 14.0348C23.9769 15.2598 23.5007 16.4044 22.6 17.3313C21.0283 18.9499 18.6677 19.8358 16.5104 20.2494L17.3671 22.2673L18.9634 26.2781C19.3667 27.2912 19.4124 28.322 18.7693 29.2455C18.2025 30.0594 17.3959 30.6723 16.4799 31.0809C15.6919 31.4318 14.9102 31.6749 14.0908 31.8181C13.5791 31.9077 13.3706 31.9018 12.4386 31.9437L10.6593 31.7762C10.6169 31.7762 10.5063 31.7516 10.4641 31.7441C8.92792 31.4728 7.50953 30.9939 6.33601 29.8199C5.55734 29.0412 5.22605 27.9862 5.56158 26.9145L6.35719 24.9526L7.23077 22.7438C7.57223 21.8813 7.91708 21.0532 8.36107 20.1849C6.13266 19.7696 3.62295 18.8318 2.10458 16.9864C1.55383 16.3174 1.26236 15.5989 1.13273 14.7541C0.853964 12.9312 1.02088 11.0958 1.57162 9.35254C2.24184 7.23078 3.28319 5.24884 4.54482 3.38413C4.80918 2.99394 5.06675 2.67242 5.4294 2.35591C6.48938 1.43067 7.73237 0.802684 9.09229 0.436776C11.3859 -0.180327 13.8321 -0.139299 16.0902 0.533067C17.4611 0.940841 19.2049 1.82924 20.1318 3.02325C21.0884 4.25578 21.8696 5.60554 22.5068 6.98879L22.5051 6.98712ZM21.274 8.3084C21.1545 8.21379 21.0105 8.20123 20.8834 8.27072C20.3038 8.58807 21.0664 11.2775 21.7485 10.9677C22.1992 10.7634 22.106 8.96737 21.274 8.3084Z" fill="url(#paint2_linear_2515_20338)"/>
<path d="M23.4919 9.79289C23.2072 8.8484 22.9191 7.88967 22.5039 6.98705C22.7386 6.90834 22.9733 6.98955 23.125 7.20391C23.5707 7.83273 23.7647 8.60976 23.6995 9.3801C23.685 9.54756 23.5901 9.66981 23.4919 9.79289Z" fill="#111311"/>
<path d="M21.2754 8.30894C22.1075 8.96791 22.2015 10.7631 21.7499 10.9683C21.0687 11.2772 20.3053 8.58776 20.8848 8.27126C21.0119 8.20176 21.1551 8.21432 21.2754 8.30894Z" fill="#111311"/>
<path d="M26.0784 11.4379C26.214 11.5485 26.2064 11.9018 26.0318 11.9294C25.8412 11.9596 25.7666 11.5217 25.8852 11.4279C25.9344 11.3894 25.9971 11.3718 26.0793 11.4379H26.0784Z" fill="#CB8F00"/>
<path d="M26.6348 11.8415C26.4416 11.7017 26.4289 11.458 26.5356 11.2479C26.6975 11.3843 26.7763 11.6347 26.6348 11.8415Z" fill="#D29B0C"/>
<path d="M23.9862 13.9089C22.6576 14.2505 22.0399 15.3733 21.1045 15.2879C20.8605 15.2653 20.5512 15.1548 20.4961 14.8977C20.4233 14.557 20.7012 14.3192 20.9977 14.212C21.8298 13.9114 22.4441 13.2005 22.6381 12.3573L22.9559 10.9741C22.9736 10.8954 23.0219 10.8275 23.0668 10.8041C23.1346 10.7689 23.2397 10.8016 23.2905 10.8376L23.582 11.0427C23.6252 11.0729 23.6574 11.067 23.682 11.0519C24.4463 11.0687 25.3105 10.398 26.0189 10.4725C26.5188 10.5253 26.8094 10.9665 26.867 11.4187C26.9577 12.1296 26.9941 13.09 26.3256 13.2792L25.3419 13.5589L23.9853 13.9072L23.9862 13.9089Z" fill="#FF8800"/>
<g filter="url(#filter0_dd_2515_20338)">
<path d="M11.444 25.9217C9.99812 27.1345 9.2401 28.6113 8.35913 27.5611C7.47816 26.5108 7.93611 24.6762 9.382 23.4634C10.8279 22.2506 12.7142 22.1188 13.5951 23.1691C14.4761 24.2194 12.8899 24.7089 11.444 25.9217Z" fill="url(#paint3_linear_2515_20338)"/>
</g>
<defs>
<filter id="filter0_dd_2515_20338" x="7.77459" y="22.46" width="6.20864" height="6.05222" filterUnits="userSpaceOnUse" color-interpolation-filters="sRGB">
<feFlood flood-opacity="0" result="BackgroundImageFix"/>
<feColorMatrix in="SourceAlpha" type="matrix" values="0 0 0 0 0 0 0 0 0 0 0 0 0 0 0 0 0 0 127 0" result="hardAlpha"/>
<feOffset dy="0.593112"/>
<feComposite in2="hardAlpha" operator="out"/>
<feColorMatrix type="matrix" values="0 0 0 0 0 0 0 0 0 0 0 0 0 0 0 0 0 0 0.1 0"/>
<feBlend mode="normal" in2="BackgroundImageFix" result="effect1_dropShadow_2515_20338"/>
<feColorMatrix in="SourceAlpha" type="matrix" values="0 0 0 0 0 0 0 0 0 0 0 0 0 0 0 0 0 0 127 0" result="hardAlpha"/>
<feOffset dy="0.254191"/>
<feGaussianBlur stdDeviation="0.0677843"/>
<feComposite in2="hardAlpha" operator="out"/>
<feColorMatrix type="matrix" values="0 0 0 0 0 0 0 0 0 0 0 0 0 0 0 0 0 0 0.25 0"/>
<feBlend mode="normal" in2="effect1_dropShadow_2515_20338" result="effect2_dropShadow_2515_20338"/>
<feBlend mode="normal" in="SourceGraphic" in2="effect2_dropShadow_2515_20338" result="shape"/>
</filter>
<linearGradient id="paint0_linear_2515_20338" x1="10.0003" y1="30.6882" x2="7.47563" y2="34.7659" gradientUnits="userSpaceOnUse">
<stop stop-color="#FFB53D"/>
<stop offset="1" stop-color="#FDE800"/>
</linearGradient>
<linearGradient id="paint1_linear_2515_20338" x1="16.8403" y1="29.52" x2="17.5603" y2="34.92" gradientUnits="userSpaceOnUse">
<stop stop-color="#FFB53D"/>
<stop offset="1" stop-color="#FDE800"/>
</linearGradient>
<linearGradient id="paint2_linear_2515_20338" x1="-0.0800002" y1="-7.11515" x2="12.8096" y2="8.68821" gradientUnits="userSpaceOnUse">
<stop stop-color="#FFC62A"/>
<stop offset="1" stop-color="#FFED2A"/>
</linearGradient>
<linearGradient id="paint3_linear_2515_20338" x1="10.3617" y1="23.8641" x2="10.9856" y2="27.7202" gradientUnits="userSpaceOnUse">
<stop stop-color="#FFED2A"/>
<stop offset="1" stop-color="#FFC62A"/>
</linearGradient>
</defs>
</svg>
