<svg width="24" height="24" viewBox="0 0 24 24" fill="none" xmlns="http://www.w3.org/2000/svg">
<path d="M20 12.1818C20 11.6145 19.9481 11.0691 19.8516 10.5455H12.1633V13.6436H16.5566C16.3636 14.64 15.7848 15.4836 14.9165 16.0509V18.0655H17.5659C19.1095 16.6691 20 14.6182 20 12.1818Z" fill="#4285F4"/>
<path d="M12.1633 20C14.3673 20 16.2152 19.2873 17.5659 18.0655L14.9165 16.0509C14.1892 16.5309 13.2616 16.8218 12.1633 16.8218C10.0408 16.8218 8.23748 15.4182 7.59184 13.5273H4.8757V15.5927C6.21892 18.2036 8.97217 20 12.1633 20Z" fill="#34A853"/>
<path d="M7.59184 13.52C7.42857 13.04 7.3321 12.5309 7.3321 12C7.3321 11.4691 7.42857 10.96 7.59184 10.48V8.41455H4.8757C4.31911 9.49091 4 10.7055 4 12C4 13.2945 4.31911 14.5091 4.8757 15.5855L6.99072 13.9709L7.59184 13.52Z" fill="#FBBC05"/>
<path d="M12.1633 7.18545C13.3655 7.18545 14.4341 7.59273 15.2876 8.37818L17.6252 6.08727C16.2078 4.79273 14.3673 4 12.1633 4C8.97217 4 6.21892 5.79636 4.8757 8.41455L7.59184 10.48C8.23748 8.58909 10.0408 7.18545 12.1633 7.18545Z" fill="#EA4335"/>
</svg>
