<svg width="11" height="14" viewBox="0 0 11 14" fill="none" xmlns="http://www.w3.org/2000/svg">
<path d="M5.5 3.00003C5.00555 3.00003 4.5222 3.14665 4.11107 3.42136C3.69995 3.69607 3.37952 4.08652 3.1903 4.54334C3.00108 5.00016 2.95157 5.50283 3.04804 5.98779C3.1445 6.47274 3.3826 6.91821 3.73223 7.26784C4.08186 7.61747 4.52732 7.85558 5.01227 7.95204C5.49723 8.04851 5.99989 7.999 6.45671 7.80978C6.91352 7.62056 7.30397 7.30012 7.57867 6.88899C7.85338 6.47787 8 5.99451 8 5.50006C8 4.83701 7.73661 4.20112 7.26777 3.73227C6.79893 3.26342 6.16304 3.00003 5.5 3.00003ZM5.6027 7.5C5.21189 7.5 4.82986 7.38411 4.50491 7.16699C4.17996 6.94986 3.9267 6.64125 3.77714 6.28019C3.62758 5.91912 3.58845 5.52181 3.6647 5.13851C3.74094 4.7552 3.92913 4.40312 4.20548 4.12677C4.48182 3.85042 4.83391 3.66223 5.21721 3.58598C5.60051 3.50974 5.99781 3.54887 6.35887 3.69843C6.71994 3.84799 7.02854 4.10125 7.24566 4.4262C7.46279 4.75115 7.57867 5.13319 7.57867 5.52401C7.57867 6.04807 7.37049 6.55067 6.99993 6.92125C6.62936 7.29182 6.12676 7.5 5.6027 7.5ZM5.5 0C4.04182 0.00165422 2.64383 0.581654 1.61274 1.61276C0.581648 2.64386 0.00165421 4.04186 0 5.50006C0 7.46257 0.906875 9.5426 2.625 11.5157C3.39701 12.4074 4.26591 13.2102 5.21562 13.9095C5.2997 13.9684 5.39985 14 5.5025 14C5.60515 14 5.70531 13.9684 5.78938 13.9095C6.73734 13.2099 7.60455 12.4071 8.375 11.5157C10.0906 9.5426 11 7.46257 11 5.50006C10.9983 4.04186 10.4184 2.64386 9.38726 1.61276C8.35617 0.581654 6.95818 0.00165422 5.5 0ZM5.5 12.8751C4.46688 12.0626 1 9.07822 1 5.50006C1 4.30657 1.47411 3.16196 2.31802 2.31804C3.16193 1.47412 4.30653 1.00001 5.5 1.00001C6.69347 1.00001 7.83807 1.47412 8.68198 2.31804C9.52589 3.16196 10 4.30657 10 5.50006C10 9.07697 6.53312 12.0626 5.5 12.8751Z" fill="#5BC66B"/>
<path fill-rule="evenodd" clip-rule="evenodd" d="M5.5 12.8751C4.46688 12.0626 1 9.07822 1 5.50006C1 4.30657 1.47411 3.16196 2.31802 2.31804C3.16193 1.47412 4.30653 1.00001 5.5 1.00001C6.69347 1.00001 7.83807 1.47412 8.68198 2.31804C9.52589 3.16196 10 4.30657 10 5.50006C10 9.07697 6.53312 12.0626 5.5 12.8751ZM4.11107 3.42136C4.5222 3.14665 5.00555 3.00003 5.5 3.00003C6.16304 3.00003 6.79893 3.26342 7.26777 3.73227C7.73661 4.20112 8 4.83701 8 5.50006C8 5.99451 7.85338 6.47787 7.57867 6.88899C7.30397 7.30012 6.91352 7.62056 6.45671 7.80978C5.99989 7.999 5.49723 8.04851 5.01227 7.95204C4.52732 7.85558 4.08186 7.61747 3.73223 7.26784C3.3826 6.91821 3.1445 6.47274 3.04804 5.98779C2.95157 5.50283 3.00108 5.00016 3.1903 4.54334C3.37952 4.08652 3.69995 3.69607 4.11107 3.42136Z" fill="#5BC66B"/>
</svg>
