<svg width="320" height="180" viewBox="0 0 320 180" fill="none" xmlns="http://www.w3.org/2000/svg">
<path d="M14.2079 57.0659C19.1927 47.0193 35.167 46.1356 41.3981 47.996C287.808 17.9957 214.735 71.0196 213.035 90.5547C211.336 110.09 267.415 152.648 213.035 160.323C158.655 167.997 92.3795 161.718 41.3981 152.648C-9.58334 143.578 12.5085 96.1361 14.2079 92.6477C15.9072 89.1593 7.97681 69.6242 14.2079 57.0659Z" fill="#E6F3E2"/>
<path d="M91.1526 46.5418C91.0449 46.6745 92.7755 41.643 90.1792 48.0263C88.7202 51.6133 87.3773 56.1446 84.4481 65.0543C81.5189 73.9639 77.1471 87.1755 73.5398 99.3736C69.9325 111.572 67.2222 122.356 65.7608 128.294C63.4564 137.657 62.575 142.378 62.243 144.049C61.9151 146.087 61.6723 147.479 61.5136 148.399C61.4337 148.89 60.8813 151.608 60.6494 152.722" stroke="#F9FCF0" stroke-width="3" stroke-linecap="round"/>
<path d="M16.9209 91.6626C17.6072 91.7542 18.0188 91.6092 26.7593 93.9221C30.5564 94.9269 32.5761 95.4838 34.9731 96.3883C40.2493 98.3792 44.0863 99.6745 46.3848 100.673C51.8934 103.065 56.1096 104.601 57.0899 105.008C59.388 105.963 62.1933 108.116 63.9944 109.077C65.93 110.278 66.7087 110.775 67.2116 111.119C67.465 111.281 67.7147 111.419 68.1075 111.728" stroke="#F9FCF0" stroke-width="3" stroke-linecap="round"/>
<path d="M42.3452 50.7461C42.2736 52.9577 42.5863 60.4753 43.0285 63.9868C43.2347 65.6245 43.6777 67.4455 43.98 69.5896C44.0289 69.937 44.4 69.8568 48.3724 69.7119C52.3447 69.5669 60.0095 69.3123 65.3604 69.4195C73.5287 69.583 76.7854 70.5605 77.5189 70.6944C78.1891 70.8284 78.8504 70.9841 79.4962 71.2022C79.8068 71.3332 80.0826 71.5053 80.3667 71.6826" stroke="#F9FCF0" stroke-width="3" stroke-linecap="round"/>
<path d="M43.8785 69.3262C42.9751 69.799 39.9887 70.9371 37.6482 71.4772C36.9972 71.6274 35.0292 71.8181 31.6322 72.0583C28.1141 72.307 24.4156 72.7478 21.2953 73.4426C18.1487 74.321 15.6339 75.517 14.2814 76.3063C14.0334 76.4784 14.9189 76.6712 14.2819 77.2037" stroke="#F9FCF0" stroke-width="3" stroke-linecap="round"/>
<path d="M233.462 138.308C230.192 140.175 224.845 142.377 217.781 144.298C214.416 145.212 211.35 145.058 197.817 141.952C184.284 138.847 160.338 132.553 143.909 127.678C127.479 122.802 119.291 119.536 110.241 116.939C101.191 114.342 91.5271 112.515 85.1087 111.54C78.6904 110.565 75.81 110.499 74.1697 110.509C72.5294 110.52 72.2165 110.609 71.2842 110.952" stroke="#F9FCF0" stroke-width="3" stroke-linecap="round"/>
<path d="M124.807 122.584C124.762 122.639 123.837 125.228 122.428 129.384C121.718 131.479 121.176 136.73 120.265 144.153C119.698 149.91 119.467 154.871 119.39 158.46C119.364 159.147 119.34 159.662 119.247 160.358" stroke="#F9FCF0" stroke-width="3" stroke-linecap="round"/>
<path d="M83.3779 73.9855C83.4227 73.9855 83.7769 73.9213 87.5671 73.9937C91.0274 74.0598 97.6025 74.4696 101.913 74.7704C108.076 75.2005 111.797 75.6792 114.855 75.88C116.672 75.9993 117.815 76.4049 118.707 76.8857C119.084 77.0891 119.164 77.5339 118.358 81.4222C117.551 85.3104 115.819 92.7114 114.89 96.9089C113.551 103.924 112.691 109.644 112.512 112.415C112.5 112.819 112.476 113.25 112.377 114.667" stroke="#F6FDEE" stroke-width="3" stroke-linecap="round"/>
<path d="M118.312 74.115C118.971 73.6884 120.451 72.5565 122.953 70.2066C125.176 68.119 129.343 64.228 131.632 62.0452C134.238 59.5591 135.019 58.3556 136.892 55.921C138.2 54.2199 140.425 51.8028 142.597 49.6646C149.092 43.2705 150.79 42.8722 152.492 41.8103C152.885 41.5614 153.172 41.3824 153.448 41.2191C153.724 41.0558 153.27 41.79 154.235 41.2191" stroke="#F6FDEE" stroke-width="3" stroke-linecap="round"/>
<path d="M136.986 59.4194C137.128 59.3046 137.737 59.1355 146.319 59.0595C154.365 58.9883 169.907 59.2748 178.08 59.414C186.59 59.5589 187.216 59.7392 187.929 59.7828C188.928 59.9133 190.616 60.1909 193.897 60.6611C196.077 60.9434 199.302 61.3145 202.829 61.7804" stroke="#F6FDEE" stroke-width="3" stroke-linecap="round"/>
<path d="M169.326 61.1594C168.775 62.0351 167.159 64.8438 164.333 71.2421C162.611 75.1423 161.223 80.9351 159.734 85.6124C158.245 90.2897 156.932 93.8206 156.049 96.4029C154.659 100.466 153.917 104.766 152.81 110.287C151.137 116.042 149.992 119.351 149.507 120.587C149.163 121.519 148.622 123.068 147.996 124.831" stroke="#F6FDEE" stroke-width="3" stroke-linecap="round"/>
<path d="M119.077 95.0133C119.472 94.8849 119.866 94.7565 124.723 94.8417C129.58 94.9269 138.887 95.2297 143.993 95.4017C150.744 95.703 151.898 95.8975 152.64 96.0086C153.005 96.0554 153.347 96.083 153.768 96.1948" stroke="#F6FDEE" stroke-width="3" stroke-linecap="round"/>
<path d="M204.028 61.4272C205.243 62.2916 209.639 65.352 212.444 67.8694C214.416 69.6393 215.815 71.385 217.08 72.5594C217.362 72.83 217.605 73.0663 217.82 73.3142C218.035 73.5622 218.216 73.8146 218.537 74.1582" stroke="#EEF8EB" stroke-width="3" stroke-linecap="round"/>
<path d="M191.611 63.0857C190.513 74.4956 189.522 82.6919 188.633 87.0762C187.848 90.9441 187.092 93.1621 185.945 97.6425C184.918 101.658 182.821 109.145 181.563 114.085C178.937 124.394 178.254 127.574 177.883 129.237C177.74 129.736 177.53 130.374 177.388 130.87C177.246 131.366 177.179 131.701 177.042 132.13" stroke="#EEF8EB" stroke-width="3" stroke-linecap="round"/>
<path d="M158.819 96.0762C159.858 96.1335 160.896 96.1908 167.362 97.0842C173.828 97.9776 185.689 99.7053 192.802 100.939C199.915 102.173 201.92 102.86 203.21 103.267C207.662 104.671 213.373 104.829 215.04 105.398C215.369 105.514 215.637 105.585 216.021 105.714C216.404 105.843 215.3 105.116 216.021 105.398" stroke="#EEF8EB" stroke-width="3" stroke-linecap="round"/>
<path d="M192.847 89.3264C198.323 89.3265 203.562 90.1273 208.384 91.5891L227.995 92.5706C237.187 98.5185 256.112 116.904 258.275 142.859C258.455 147.185 257.302 156.376 251.246 158.539C246.929 160.081 242.964 158.984 239.35 155.852V158.621C239.35 159.173 238.902 159.621 238.35 159.621H174.382C173.83 159.621 173.382 159.173 173.382 158.621V153.82H173.381V159.121C173.381 159.397 173.157 159.621 172.881 159.621H150.089C149.813 159.621 149.589 159.397 149.589 159.121V126.16C149.589 126.125 149.618 126.096 149.653 126.096C149.691 126.096 149.721 126.063 149.718 126.025C149.633 125.156 149.589 124.278 149.589 123.392C149.589 104.578 168.957 89.3267 192.847 89.3264Z" fill="#5BC66B"/>
<path d="M171.226 130.922C171.221 130.05 171.927 129.34 172.799 129.34C173.664 129.34 174.366 130.038 174.372 130.903L174.451 143.979C174.457 144.852 173.751 145.562 172.878 145.562C172.014 145.562 171.311 144.864 171.306 143.999L171.226 130.922Z" fill="#52B260"/>
<path d="M197.795 124.844C198.539 124.341 199.549 124.538 200.05 125.284C200.548 126.026 200.352 127.032 199.611 127.532L173.082 145.455L171.274 142.761L197.795 124.844Z" fill="#52B260"/>
<path d="M230.424 130.65C230.257 130.077 230.586 129.476 231.159 129.309V129.309C231.733 129.142 232.333 129.472 232.5 130.045L239.041 152.492C239.208 153.065 238.879 153.665 238.305 153.832V153.832C237.732 153.999 237.131 153.67 236.964 153.097L230.424 130.65Z" fill="#52B260"/>
<circle cx="173.92" cy="71.5034" r="5.94799" fill="#FDD5BE"/>
<ellipse cx="200.415" cy="67.1775" rx="28.1178" ry="28.6585" fill="#FDD5BE"/>
<mask id="mask0_1137_2270" style="mask-type:alpha" maskUnits="userSpaceOnUse" x="172" y="35" width="57" height="58">
<ellipse cx="200.416" cy="63.9124" rx="28.1178" ry="28.6585" fill="#FDD5BE"/>
</mask>
<g mask="url(#mask0_1137_2270)">
<ellipse cx="176.625" cy="37.9576" rx="28.1178" ry="28.6585" fill="#1C2424"/>
<ellipse cx="228.533" cy="35.7947" rx="28.1178" ry="28.6585" fill="#1C2424"/>
</g>
<ellipse cx="198.793" cy="70.4011" rx="2.70363" ry="3.78508" fill="#1B2524"/>
<ellipse cx="210.689" cy="70.4011" rx="2.70363" ry="3.78508" fill="#1B2524"/>
<path d="M263.355 7C281.871 7 296.881 22.01 296.881 40.5254C296.881 59.0406 281.871 74.0498 263.355 74.0498C262.39 74.0498 261.434 74.0058 260.489 73.9258C255.202 76.5204 250.158 78.6214 250.919 76.7539C251.304 75.8094 251.431 74.0148 251.41 71.8555C238.794 67.0424 229.831 54.8321 229.831 40.5254C229.831 22.0102 244.84 7.00022 263.355 7Z" fill="#FFF098"/>
<path d="M227.226 92.5529C228.119 88.9811 230.202 88.0881 231.133 88.0881H247.317C251.336 88.0881 251.968 91.0647 251.782 92.5529L240.062 127.155C234.667 127.527 223.319 128.16 221.087 127.713C218.854 127.267 218.668 124.923 218.854 123.807C221.273 114.877 226.333 96.1248 227.226 92.5529Z" fill="#454F55"/>
<path d="M228.952 92.5529C229.845 88.9811 231.929 88.0881 232.859 88.0881H249.044C253.062 88.0881 253.695 91.0647 253.509 92.5529L241.788 127.155C236.394 127.527 225.045 128.16 222.813 127.713C220.581 127.267 220.395 124.923 220.581 123.807C222.999 114.877 228.059 96.1248 228.952 92.5529Z" fill="#212827"/>
<circle cx="232.754" cy="94.2273" r="1.6743" fill="#454F55"/>
<path d="M247.296 109.657L248.102 108.046C248.284 107.681 248.797 107.679 248.964 108.052C251.014 112.639 252.986 122.054 246.917 127.718C238.807 135.288 229.614 127.718 227.451 120.689C225.288 113.659 227.992 108.252 234.481 105.008C239.283 102.607 244.146 106.807 246.418 109.733C246.651 110.034 247.126 109.997 247.296 109.657Z" fill="#FDD5BE"/>
<path d="M262.768 31.3999C257.775 31.3999 253.717 35.0833 253.717 39.6157V43.5729C253.717 44.4082 253.325 45.6816 252.857 46.3937L251.122 49.009C250.051 50.6248 250.79 52.4186 252.752 53.0211C259.253 54.9928 266.268 54.9928 272.769 53.0211C274.595 52.4733 275.394 50.5153 274.398 49.009L272.664 46.3937C272.211 45.6816 271.819 44.4082 271.819 43.5729V39.6157C271.819 35.097 267.746 31.3999 262.768 31.3999Z" fill="#F1C020" stroke="#F1C020" stroke-width="2" stroke-miterlimit="10" stroke-linecap="round"/>
<path d="M265.618 31.4C265.192 31.2762 264.752 31.18 264.298 31.125C262.978 30.96 261.713 31.0562 260.531 31.4C260.929 30.3825 261.919 29.6675 263.074 29.6675C264.229 29.6675 265.219 30.3825 265.618 31.4Z" stroke="#F1C020" stroke-width="2" stroke-miterlimit="10" stroke-linecap="round" stroke-linejoin="round"/>
<mask id="path-34-inside-1_1137_2270" fill="white">
<path d="M267.131 55.6001C267.131 58.0201 265.151 60.0001 262.731 60.0001C261.528 60.0001 260.413 59.5014 259.621 58.7094C258.829 57.9174 258.331 56.8028 258.331 55.6001"/>
</mask>
<path d="M267.131 55.6001C267.131 58.0201 265.151 60.0001 262.731 60.0001C261.528 60.0001 260.413 59.5014 259.621 58.7094C258.829 57.9174 258.331 56.8028 258.331 55.6001" fill="#F1C020" stroke="#FFF098" stroke-width="2" stroke-miterlimit="10" mask="url(#path-34-inside-1_1137_2270)"/>
<rect x="269.811" y="24" width="2" height="5" rx="1" transform="rotate(23.332 269.811 24)" fill="#FFD556"/>
<rect x="275.967" y="27.2463" width="2.18402" height="5.46006" rx="1.09201" transform="rotate(45 275.967 27.2463)" fill="#FACA3B"/>
<rect x="279.746" y="33.7983" width="2.18402" height="5.46006" rx="1.09201" transform="rotate(87.792 279.746 33.7983)" fill="#EDB91D"/>
<path d="M197.704 137.088C202.332 140.453 205.971 137.614 207.328 135.631C207.4 135.526 207.512 135.447 207.636 135.415C218.701 132.55 215.837 124.868 212.493 120.646C212.223 120.305 212.461 119.778 212.894 119.753C217.565 119.489 219.124 117.596 219.325 116.58C219.331 116.553 219.333 116.524 219.332 116.497C219.265 110.068 204.181 113.849 198.786 119.244C193.378 124.651 191.756 132.762 197.704 137.088Z" fill="#FDD5BE"/>
<path d="M208.526 81.7563C207.445 83.5588 203.66 86.0822 200.416 81.7563" stroke="#F7714A" stroke-width="2" stroke-linecap="round"/>
<path d="M37.3483 84.7086C37.3697 84.2842 37.6691 83.916 38.0769 83.7967C89.0656 68.8813 109.431 73.6048 126.627 80.6994C135.187 84.2308 140.999 91.0872 141.541 98.8899C142.089 106.775 136.541 113 129.47 116.56C120.338 121.157 114.841 126.676 114.236 127.353C113.746 127.901 114.131 129.82 114.229 130.693C114.259 130.957 114.292 131.244 114.402 131.485C117.698 138.752 126.352 142.313 142.061 145.803C157.658 149.267 177.197 150.132 196.578 149.668C215.886 149.205 234.704 147.434 248.721 145.772C255.722 144.942 261.507 144.141 265.536 143.549C267.55 143.254 269.125 143.01 270.191 142.841C270.724 142.757 271.13 142.69 271.4 142.646C271.536 142.624 271.638 142.607 271.704 142.596C271.737 142.591 271.761 142.586 271.777 142.583C271.784 142.582 271.79 142.582 271.794 142.581C271.794 142.581 271.794 142.581 271.794 142.581C271.796 142.58 271.798 142.581 271.798 142.583C271.804 142.619 271.877 143.062 272.785 148.522C273.72 154.14 273.85 158.295 273.854 158.443C273.854 158.448 273.851 158.448 273.847 158.449C273.841 158.45 273.833 158.452 273.823 158.453C273.803 158.457 273.774 158.461 273.736 158.468C273.66 158.48 273.549 158.498 273.405 158.522C273.115 158.569 272.688 158.639 272.135 158.726C271.027 158.902 269.409 159.152 267.348 159.455C263.227 160.06 257.247 160.507 250.121 161.352C235.884 163.04 216.669 164.853 196.863 165.328C177.129 165.801 156.47 164.956 139.483 161.183C123.106 157.545 107.03 147.423 102.265 133.701C100.594 128.889 101.57 124.193 104.731 120.032C108.119 115.573 113.944 110.062 123.858 105.071C128.753 102.607 128.912 99.979 128.843 98.9783C128.843 97.3264 130.093 93.7246 120.702 90.7229C120.594 90.6883 120.497 90.6409 120.405 90.5748C114.78 86.5447 87.8116 79.0084 38.264 93.3147C37.6022 93.5058 36.9306 92.9943 36.9653 92.3064L37.3483 84.7086Z" fill="url(#paint0_linear_1137_2270)"/>
<path d="M271.331 150.5C220.574 158.271 115.831 168.5 108.023 129.087C107.425 124.893 108.481 119.789 127.131 109.359C147.676 97.8705 129.951 63.5282 33.0168 90.2933" stroke="#DAF0A2" stroke-linecap="round" stroke-linejoin="round" stroke-dasharray="3 3"/>
<path d="M32.8977 69.0674C34.3052 69.0674 35.7271 69.3257 37.1633 69.8428C38.5996 70.3598 39.8922 71.1358 41.0413 72.1699C42.1903 73.204 43.1314 74.4892 43.8645 76.0254C44.5965 77.5629 44.9631 79.3519 44.9631 81.3916C44.9631 83.9483 44.0791 86.5485 42.3118 89.1914C40.5457 91.8341 37.8672 94.5486 34.2766 97.335C34.1044 97.4785 33.896 97.586 33.6526 97.6572C33.408 97.7296 33.1561 97.7666 32.8977 97.7666C32.6392 97.7666 32.3941 97.7296 32.1643 97.6572C31.9347 97.586 31.7197 97.4784 31.5188 97.335C27.928 94.5485 25.2488 91.8343 23.4827 89.1914C21.7154 86.5485 20.8313 83.9483 20.8313 81.3916C20.8313 79.3519 21.1978 77.5629 21.9309 76.0254C22.6629 74.4891 23.6041 73.2041 24.7532 72.1699C25.9022 71.1358 27.1948 70.3599 28.6311 69.8428C30.0675 69.3257 31.4901 69.0674 32.8977 69.0674Z" fill="#FF7070"/>
<circle cx="32.8967" cy="80.5583" r="4.59641" fill="white"/>
<path d="M289.011 144.406C290.317 144.862 290.776 146.475 289.907 147.551L273.818 167.47C272.779 168.756 270.718 168.298 270.321 166.693L263.409 138.74C263.028 137.197 264.51 135.847 266.01 136.371L289.011 144.406Z" fill="url(#paint1_linear_1137_2270)"/>
<path d="M294.553 107.841C296.373 107.841 298.212 108.175 300.069 108.844C301.926 109.512 303.598 110.515 305.083 111.853C306.569 113.19 307.787 114.851 308.735 116.838C309.681 118.826 310.155 121.139 310.155 123.776C310.155 127.082 309.011 130.444 306.726 133.861C304.442 137.279 300.98 140.79 296.336 144.393C296.114 144.578 295.845 144.716 295.53 144.809C295.213 144.902 294.888 144.949 294.553 144.949C294.219 144.949 293.903 144.902 293.606 144.809C293.309 144.716 293.03 144.578 292.77 144.393C288.127 140.789 284.663 137.279 282.379 133.861C280.094 130.444 278.952 127.082 278.952 123.776C278.952 121.139 279.426 118.826 280.374 116.838C281.32 114.851 282.536 113.19 284.022 111.853C285.508 110.515 287.179 109.512 289.037 108.844C290.894 108.175 292.733 107.841 294.553 107.841Z" fill="#FFD035"/>
<circle cx="294.553" cy="122.699" r="5.94331" fill="white"/>
<circle cx="113.333" cy="128.336" r="6.2008" fill="#FEC62A" stroke="#FFFDE9" stroke-width="2"/>
<circle cx="119.98" cy="90.6698" r="6.2008" fill="#FEC62A" stroke="#FFFDE9" stroke-width="2"/>
<defs>
<linearGradient id="paint0_linear_1137_2270" x1="36.8943" y1="95.112" x2="290.332" y2="148.5" gradientUnits="userSpaceOnUse">
<stop stop-color="#6CC87A"/>
<stop offset="0.55" stop-color="#45A855"/>
<stop offset="1" stop-color="#FFF098"/>
</linearGradient>
<linearGradient id="paint1_linear_1137_2270" x1="264.84" y1="157.058" x2="298.879" y2="139.638" gradientUnits="userSpaceOnUse">
<stop stop-color="#DCE28B"/>
<stop offset="1" stop-color="#FFD035"/>
</linearGradient>
</defs>
</svg>
