<svg width="320" height="180" viewBox="0 0 320 180" fill="none" xmlns="http://www.w3.org/2000/svg">
<path d="M158.43 92.9299L164.5 98.9999L158.43 105.07" stroke="#5BC66B" stroke-width="3" stroke-miterlimit="10" stroke-linecap="round" stroke-linejoin="round"/>
<path d="M147.5 99H164.33" stroke="#5BC66B" stroke-width="3" stroke-miterlimit="10" stroke-linecap="round" stroke-linejoin="round"/>
<path d="M214 111C219.064 111 223.908 111.741 228.366 113.093L246.5 114C255 119.5 272.5 136.5 274.5 160.5C274.667 164.5 273.6 173 268 175C264.007 176.426 260.342 175.41 257 172.513V175C257 175.552 256.552 176 256 176H197C196.448 176 196 175.552 196 175V175.5C196 175.776 195.776 176 195.5 176H174.5C174.224 176 174 175.776 174 175.5V145.06C174 145.027 174.027 145 174.06 145C174.095 145 174.122 144.969 174.118 144.935C174.04 144.131 174 143.319 174 142.5C174 125.103 191.909 111 214 111Z" fill="#5BC66B"/>
<path d="M194 149.5C194 148.672 194.672 148 195.5 148V148C196.328 148 197 148.672 197 149.5V176H194V149.5Z" fill="#52B260"/>
<path d="M248.747 149.211C248.592 148.681 248.897 148.126 249.427 147.971V147.971C249.957 147.817 250.512 148.122 250.667 148.652L256.715 169.408C256.869 169.938 256.565 170.493 256.034 170.648V170.648C255.504 170.802 254.949 170.497 254.795 169.967L248.747 149.211Z" fill="#52B260"/>
<circle cx="196.5" cy="94.5193" r="5.5" fill="#FDD5BE"/>
<ellipse cx="221" cy="90.5193" rx="26" ry="26.5" fill="#FDD5BE"/>
<mask id="mask0_1137_2269" style="mask-type:alpha" maskUnits="userSpaceOnUse" x="195" y="62" width="52" height="53">
<ellipse cx="221" cy="88.5" rx="26" ry="26.5" fill="#FDD5BE"/>
</mask>
<g mask="url(#mask0_1137_2269)">
<ellipse cx="199" cy="62.5" rx="26" ry="26.5" fill="#1C2424"/>
<ellipse cx="247" cy="62.5" rx="26" ry="26.5" fill="#1C2424"/>
</g>
<ellipse cx="219.5" cy="95.5" rx="2.5" ry="3.5" fill="#1B2524"/>
<ellipse cx="230.5" cy="95.5" rx="2.5" ry="3.5" fill="#1B2524"/>
<path d="M267 10C284.121 10 298 23.8792 298 41C298 58.1208 284.121 72 267 72C266.107 72 265.224 71.9597 264.351 71.8857C259.462 74.2851 254.796 76.2271 255.5 74.5C255.856 73.6268 255.973 71.9679 255.954 69.9717C244.288 65.5212 236 54.2295 236 41C236 23.8792 249.879 10 267 10Z" fill="#FFF098"/>
<path d="M245.791 113.984C246.617 110.681 248.544 109.855 249.404 109.855H264.37C268.085 109.855 268.67 112.607 268.498 113.984L257.661 145.98C252.672 146.324 242.179 146.909 240.115 146.496C238.05 146.083 237.878 143.915 238.05 142.883C240.287 134.626 244.966 117.286 245.791 113.984Z" fill="#454F55"/>
<path d="M247.388 113.984C248.214 110.681 250.14 109.855 251.001 109.855H265.966C269.682 109.855 270.267 112.607 270.095 113.984L259.258 145.98C254.269 146.324 243.776 146.909 241.711 146.496C239.647 146.083 239.475 143.915 239.647 142.883C241.883 134.626 246.562 117.286 247.388 113.984Z" fill="#212827"/>
<circle cx="250.902" cy="115.532" r="1.5482" fill="#454F55"/>
<path d="M264.379 129.742L265.062 128.376C265.245 128.011 265.757 128.008 265.922 128.381C267.807 132.646 269.582 141.29 264 146.5C256.501 153.5 248 146.5 246 140C244 133.5 246.5 128.5 252.5 125.5C256.913 123.294 261.382 127.116 263.499 129.819C263.734 130.119 264.209 130.083 264.379 129.742Z" fill="#FDD5BE"/>
<path d="M266.402 30.5466C261.242 30.5466 257.049 34.3528 257.049 39.0363V43.1254C257.049 43.9885 256.644 45.3044 256.161 46.0402L254.368 48.7427C253.261 50.4124 254.025 52.2659 256.052 52.8885C262.77 54.926 270.018 54.926 276.737 52.8885C278.623 52.3225 279.449 50.2992 278.42 48.7427L276.628 46.0402C276.16 45.3044 275.755 43.9885 275.755 43.1254V39.0363C275.755 34.367 271.546 30.5466 266.402 30.5466Z" fill="#F1C020" stroke="#F1C020" stroke-width="2" stroke-miterlimit="10" stroke-linecap="round"/>
<path d="M269.347 30.5466C268.907 30.4187 268.452 30.3193 267.983 30.2624C266.619 30.0919 265.312 30.1914 264.09 30.5466C264.502 29.4952 265.525 28.7563 266.719 28.7563C267.912 28.7563 268.935 29.4952 269.347 30.5466Z" stroke="#F1C020" stroke-width="2" stroke-miterlimit="10" stroke-linecap="round" stroke-linejoin="round"/>
<mask id="path-20-inside-1_1137_2269" fill="white">
<path d="M270.91 55.5532C270.91 58.0539 268.864 60.0999 266.363 60.0999C265.121 60.0999 263.969 59.5846 263.15 58.7662C262.332 57.9478 261.817 56.796 261.817 55.5532"/>
</mask>
<path d="M270.91 55.5532C270.91 58.0539 268.864 60.0999 266.363 60.0999C265.121 60.0999 263.969 59.5846 263.15 58.7662C262.332 57.9478 261.817 56.796 261.817 55.5532" fill="#F1C020" stroke="#FFF098" stroke-width="2" stroke-miterlimit="10" mask="url(#path-20-inside-1_1137_2269)"/>
<rect x="272.98" y="23" width="2" height="5" rx="1" transform="rotate(23.332 272.98 23)" fill="#FFD556"/>
<rect x="279.137" y="26.2463" width="2.18402" height="5.46006" rx="1.09201" transform="rotate(45 279.137 26.2463)" fill="#FACA3B"/>
<rect x="282.916" y="32.7983" width="2.18402" height="5.46006" rx="1.09201" transform="rotate(87.792 282.916 32.7983)" fill="#EDB91D"/>
<path d="M62 111C68.823 111 75.2468 112.345 80.8671 114.717C81.0202 114.782 81.1951 114.767 81.3348 114.678L85.3657 112.086C85.4531 112.03 85.5519 112.002 85.6556 112.007C107.028 113.037 146.875 120.755 136.5 143.5C134.52 147.295 125.58 153.868 105.605 150.116C105.295 150.058 105 150.293 105 150.608V175C105 175.552 104.552 176 104 176H45C44.4477 176 44 175.552 44 175V175.5C44 175.776 43.7761 176 43.5 176H22.5C22.2239 176 22 175.776 22 175.5V145.059C22 145.027 22.0266 145 22.0594 145C22.0945 145 22.122 144.97 22.1186 144.935C22.0405 144.131 22 143.319 22 142.5C22 125.103 39.9086 111 62 111Z" fill="#5BC66B"/>
<path d="M71.5 132.203C74.9996 128.703 84.1667 127.5 86.5 128.5C103 130 102.5 142.5 98.5 146.703C94 151 85.5 149.537 82 148.203C83.2 151.803 80.8333 153.037 79.5 153.203C64.0004 153.5 65.2454 138.459 71.5 132.203Z" fill="#FDD5BE"/>
<circle cx="47.5" cy="94.5193" r="5.5" fill="#FDD5BE"/>
<circle cx="96.5" cy="94.5193" r="5.5" fill="#FDD5BE"/>
<ellipse cx="72" cy="90.5193" rx="26" ry="26.5" fill="#FDD5BE"/>
<mask id="mask1_1137_2269" style="mask-type:alpha" maskUnits="userSpaceOnUse" x="46" y="62" width="53" height="55">
<ellipse cx="72.5" cy="89.0096" rx="26.5" ry="27.0096" fill="#FDD5BE"/>
</mask>
<g mask="url(#mask1_1137_2269)">
<ellipse cx="50.0769" cy="62.5096" rx="26.5" ry="27.0096" fill="#1C2424"/>
<ellipse cx="99" cy="62.5096" rx="26.5" ry="27.0096" fill="#1C2424"/>
</g>
<ellipse cx="70.5" cy="95.5" rx="2.5" ry="3.5" fill="#1B2524"/>
<ellipse cx="81.5" cy="95.5" rx="2.5" ry="3.5" fill="#1B2524"/>
<path d="M42 149.5C42 148.672 42.6716 148 43.5 148V148C44.3284 148 45 148.672 45 149.5V176H42V149.5Z" fill="#52B260"/>
<rect x="97.9697" y="126.744" width="21.0452" height="3" rx="1.5" transform="rotate(-13.5888 97.9697 126.744)" fill="#52B260"/>
<path d="M93.2031 149.518C93.3186 148.691 94.1007 148.126 94.9223 148.278L105.305 150.192L105.305 152.689L94.4534 151.174C93.6508 151.062 93.091 150.321 93.2031 149.518Z" fill="#52B260"/>
<path d="M90.6485 148.875C92.3443 141.351 90.0301 136.6 88.5647 135.066C88.5216 135.021 88.4678 134.986 88.4109 134.96C80.5454 131.451 86.5229 125 92.5004 125C97.3004 125 99.5004 127.667 100 129C101.319 132.078 99.0293 134.125 97.5511 134.8C97.271 134.928 97.1108 135.257 97.2218 135.544C99.2387 140.767 98.3912 146.546 97.6082 149.159C97.5464 149.365 97.3552 149.5 97.14 149.5H91.1404C90.8151 149.5 90.577 149.193 90.6485 148.875Z" fill="#1C2424"/>
<ellipse cx="92.5" cy="130" rx="5.5" ry="3" fill="white"/>
<circle cx="119" cy="41" r="31" fill="#FFF098"/>
<circle cx="117.5" cy="77.5" r="4.5" fill="#FFF098"/>
<circle cx="110.5" cy="84.5" r="3.5" fill="#FFF098"/>
<path d="M118.985 26C110.705 26 104 32.72 104 41C104 49.28 110.705 56 118.985 56C127.28 56 134 49.28 134 41C134 32.72 127.28 26 118.985 26ZM119 53C112.37 53 107 47.63 107 41C107 34.37 112.37 29 119 29C125.63 29 131 34.37 131 41C131 47.63 125.63 53 119 53ZM118.67 33.5H118.58C117.98 33.5 117.5 33.98 117.5 34.58V41.66C117.5 42.185 117.77 42.68 118.235 42.95L124.46 46.685C124.97 46.985 125.63 46.835 125.93 46.325C126.245 45.815 126.08 45.14 125.555 44.84L119.75 41.39V34.58C119.75 33.98 119.27 33.5 118.67 33.5Z" fill="#F1C020"/>
</svg>
