<svg width="17" height="17" viewBox="0 0 17 17" fill="none" xmlns="http://www.w3.org/2000/svg">
<path d="M8.2002 0.100342C10.2319 0.100463 12.1508 0.86135 13.6221 2.19019V1.36108C13.6223 0.941344 13.9631 0.600422 14.3828 0.600342C14.8026 0.600342 15.1443 0.941294 15.1445 1.36108V4.24292C15.1445 4.66293 14.8028 5.00464 14.3828 5.00464H11.5029C11.083 5.00464 10.7412 4.66293 10.7412 4.24292C10.7412 3.82293 11.083 3.4812 11.5029 3.4812H12.7783C11.5642 2.29944 9.93015 1.62085 8.19824 1.62085C4.57159 1.62111 1.62109 4.57011 1.62109 8.198C1.62111 11.8248 4.57161 14.7749 8.19824 14.7751C11.8251 14.7751 14.7764 11.826 14.7764 8.198C14.7764 7.77799 15.1181 7.43628 15.5381 7.43628C15.958 7.43631 16.2988 7.77801 16.2988 8.198C16.2988 12.61 12.7512 16.2088 8.35742 16.2937L8.36035 16.2996H8.2002C3.73346 16.2996 0.0996094 12.6661 0.0996094 8.19995C0.0996094 3.73491 3.73345 0.100342 8.2002 0.100342Z" fill="#767676" stroke="#767676" stroke-width="0.2"/>
</svg>
