<svg width="283" height="87" viewBox="0 0 283 87" fill="none" xmlns="http://www.w3.org/2000/svg">
<path d="M121.098 63.132C117.78 67.4373 113.503 70.7611 108.716 72.2307C106.72 72.8448 104.713 73.3048 102.618 73.3051L88.804 73.2956C88.5819 73.2965 88.3616 73.1659 88.2861 73.0208C88.2106 72.8757 88.1376 72.4867 88.2242 72.2783L114.527 9.71231C114.758 9.16381 115.346 8.50586 115.885 8.50701L129.761 8.54315C130.965 8.54632 132.091 8.77045 133.252 9.0119C134.283 9.22829 135.238 9.61085 136.154 10.1745C138.806 11.805 139.973 15.339 139.744 18.7488C139.561 21.4944 138.854 24.1777 137.807 26.6656L125.475 55.9257C124.359 58.5754 122.798 60.9253 121.096 63.1342L121.098 63.132ZM110.645 57.3339C110.645 57.3339 110.645 57.3334 110.645 57.3332C111.719 56.3609 112.681 55.176 113.288 53.7274L124.165 27.7667C124.532 26.8871 124.783 26.0098 124.76 25.0622C124.739 24.1938 124.212 23.4825 123.457 23.4683L122.223 23.4436C122.087 23.4396 121.876 23.5731 121.801 23.7537L107.576 57.5976C107.406 58.0012 107.597 58.3832 108.037 58.3694C108.996 58.3453 109.841 58.063 110.646 57.3347C110.646 57.3345 110.646 57.334 110.645 57.3339Z" fill="#52B260"/>
<path d="M187.307 63.1045C187.307 63.1038 187.306 63.1038 187.305 63.1044C185.637 65.3036 183.815 67.1479 181.755 68.7478C177.784 71.8286 173.461 73.2476 168.698 73.5555L154.665 73.5088C154.478 73.5078 154.278 73.2663 154.246 73.12C154.214 72.9737 154.174 72.6544 154.258 72.453L180.563 9.88004C180.782 9.3569 181.402 8.72547 181.901 8.7258L195.792 8.7655C197.043 8.77016 198.213 9.00513 199.416 9.26916C200.335 9.47155 201.184 9.81662 202.008 10.2937C204.781 11.8982 205.998 15.4867 205.761 18.9916C205.575 21.7537 204.855 24.4432 203.799 26.9446L191.539 56.0406C190.447 58.6296 188.957 60.9322 187.309 63.1045C187.309 63.1051 187.308 63.1051 187.307 63.1045ZM179.34 53.8689C179.339 53.8681 179.339 53.8666 179.339 53.8654L190.179 27.9877C190.552 27.0966 190.803 26.2098 190.771 25.2422C190.742 24.3995 190.22 23.7054 189.487 23.6907L188.249 23.6656C188.036 23.6624 187.873 23.8382 187.77 24.0835L173.944 56.9807C173.614 57.7661 174.163 58.6596 174.994 58.4668C176.711 58.0694 178.56 55.7353 179.341 53.8724C179.342 53.8712 179.342 53.8697 179.34 53.8689Z" fill="#52B260"/>
<path d="M80.0253 71.4147C80.0246 71.4154 80.0238 71.4161 80.0229 71.4166C76.5929 73.3418 73.1123 74.2694 69.3019 73.8893C67.9717 73.7561 66.7291 73.5008 65.496 72.9518C63.1999 71.9323 61.5442 69.7397 61.0504 66.9289C60.7995 65.5053 60.7793 64.1077 60.9418 62.6462C61.1312 60.9451 61.4277 59.3078 62.0082 57.7322L63.4741 53.7584L74.928 26.6768C76.4444 23.0902 78.4956 19.8373 80.878 16.9899C84.1533 13.0762 88.3151 9.97031 92.843 8.48911C95.5338 7.60879 98.2674 7.44788 101.033 7.98153C103.918 8.53701 106.329 9.98004 107.392 13.2566C107.888 14.7841 108.068 16.3576 107.991 18.0105C107.813 21.8626 106.492 25.3408 105.039 28.7984L94.1609 54.6871C92.4437 58.7719 90.0819 62.4686 87.2581 65.5791C85.0978 67.9582 82.6937 69.9153 80.0278 71.4128C80.0269 71.4133 80.026 71.414 80.0253 71.4147ZM78.7099 58.1884C78.71 58.1877 78.7103 58.1869 78.7109 58.1864C79.5581 57.3943 80.2915 56.4133 80.7767 55.2564L92.888 26.4163C93.2194 25.6295 93.3879 24.7814 93.4 23.9707C93.4121 23.1601 92.9808 22.6434 92.3352 22.6119C91.6136 22.579 90.9344 22.8296 90.3365 23.3336C89.498 24.0429 88.7777 24.9725 88.3022 26.1042L76.1873 54.9345C75.8272 55.7884 75.5168 56.6033 75.4952 57.5376C75.4735 58.472 75.9953 59.0895 76.787 59.0516C77.4731 59.0194 78.123 58.7379 78.709 58.1904C78.7095 58.1899 78.7099 58.1892 78.7099 58.1884Z" fill="#52B260"/>
<path d="M201.549 64.8587C201.548 64.8586 201.546 64.8587 201.545 64.859C201.248 64.9235 201.057 65.1062 200.918 65.3767L197.108 72.6823C196.833 73.2104 196.304 73.641 195.761 73.6395L184.549 73.6091C184.407 73.6094 184.197 73.4844 184.133 73.3881C183.958 73.12 184.126 72.5401 184.363 72.1333L220.578 9.74711C220.874 9.23512 221.453 8.84689 221.971 8.84635L234.954 8.88343C235.156 8.88322 235.397 9.00361 235.486 9.12825C235.6 9.29081 235.667 9.61234 235.597 9.88433L219.24 72.4749C219.061 73.1617 218.486 73.7131 217.89 73.712L206.222 73.6776C206.078 73.6778 205.882 73.5276 205.82 73.422C205.759 73.3164 205.711 73.0156 205.755 72.8659L208.077 65.2598C208.104 65.171 208.086 65.0737 208.03 64.9985C207.974 64.9246 207.887 64.8808 207.796 64.8805L201.549 64.8587ZM212.56 50.7882C212.559 50.7885 212.559 50.7882 212.559 50.7879L217.674 34.1879C217.762 33.9041 217.568 33.6492 217.433 33.9127L209.949 48.3486C209.215 49.7645 210.259 51.4882 211.864 51.5097L212.01 51.5117C212.022 51.5118 212.033 51.5113 212.044 51.509C212.282 51.4602 212.465 51.1009 212.56 50.7886C212.56 50.7882 212.56 50.788 212.56 50.7882Z" fill="#52B260"/>
<path d="M135.529 64.6393C135.529 64.6405 135.528 64.6416 135.527 64.6419C135.306 64.7054 135.074 64.8465 134.965 65.0548L131.102 72.4613C130.823 72.9939 130.294 73.422 129.745 73.4201L118.527 73.3868C118.217 73.3852 117.989 73.0984 118.055 72.759C118.115 72.4551 118.215 72.1473 118.381 71.8616L154.543 9.56922C154.836 9.06421 155.393 8.62631 155.913 8.62594L168.94 8.66178C169.158 8.66291 169.397 8.79029 169.491 8.9321C169.589 9.0814 169.658 9.39835 169.592 9.65383L153.232 72.249C153.043 72.9708 152.443 73.4962 151.829 73.4936L140.245 73.4567C140.097 73.4565 139.902 73.3255 139.833 73.2313C139.765 73.1371 139.691 72.8365 139.732 72.701L142.028 65.1657C142.064 65.0465 142.105 64.9182 142.101 64.8413C142.091 64.6308 141.746 64.6577 141.536 64.657L135.532 64.6366C135.53 64.6366 135.529 64.6378 135.529 64.6393ZM146.551 50.5694C146.551 50.5686 146.551 50.5678 146.551 50.5671L151.637 34.0646C151.74 33.7312 151.535 33.4845 151.374 33.7927L143.982 48.0464C143.226 49.505 144.304 51.2806 145.957 51.3C146.243 51.3043 146.445 50.9195 146.55 50.5717C146.55 50.571 146.551 50.5702 146.551 50.5694Z" fill="#52B260"/>
<path d="M48.2265 81.6653C68.3758 82.4293 84.7231 82.5848 84.7391 82.0126C84.7551 81.4404 68.4337 80.3573 48.2844 79.5933C28.1351 78.8293 11.7878 78.6738 11.7718 79.246C11.7558 79.8181 28.0771 80.9013 48.2265 81.6653Z" fill="#52B260"/>
<path d="M47.0219 26.9105C61.1834 27.4475 72.6746 27.4873 72.6882 26.9996C72.7019 26.5118 61.2328 25.6811 47.0713 25.1441C32.9098 24.6072 21.4186 24.5673 21.405 25.0551C21.3914 25.5429 32.8605 26.3736 47.0219 26.9105Z" fill="#52B260"/>
<path d="M92.9949 22.8944C92.9796 23.2834 86.7595 23.2753 79.1017 22.8736C71.4437 22.4744 71.5531 22.6366 65.2628 21.4447C64.9336 21.3817 67.3238 21.3243 79.1561 21.4655C86.8225 21.5566 93.0103 22.5054 92.9949 22.8944Z" fill="#D9D9D9"/>
<path fill-rule="evenodd" clip-rule="evenodd" d="M80.1251 8.6597C80.3469 8.66119 80.5943 8.82001 80.6544 8.9829C80.7144 9.14577 80.7559 9.50575 80.6698 9.70941L54.3477 72.3222C54.1003 72.91 53.461 73.4486 52.9164 73.4469L41.6977 73.4261C41.4739 73.4244 41.2148 73.2929 41.1391 73.1145C41.0745 72.9584 41.0225 72.5944 41.1162 72.3699L51.0426 48.8234C51.1466 48.5724 50.8402 48.4347 50.5669 48.4335L47.5927 48.4205C47.3791 48.4197 47.1731 48.4963 47.0723 48.7343L37.2164 72.0997C36.9618 72.7061 36.3948 73.3831 35.7926 73.3816L24.5772 73.3698C24.21 73.3683 24.0138 73.1755 23.92 72.8219C23.9199 72.8215 23.9195 72.8212 23.9192 72.8212C23.919 72.8212 23.9187 72.8211 23.9186 72.8209L23.9184 72.8207C23.9181 72.8203 23.9179 72.8199 23.918 72.8195L23.9401 72.4507C23.941 72.4352 23.9451 72.4196 23.9511 72.4054L50.2952 9.74331C50.5208 9.20888 51.1232 8.58758 51.6308 8.58832L63.062 8.60847C63.2552 8.60783 63.442 8.84577 63.4781 8.9971C63.511 9.13171 63.5453 9.47355 63.4758 9.64014L54.8937 30.131C54.2334 31.7076 55.4031 33.4841 57.1212 33.5139C57.5542 33.524 57.7163 32.96 57.8848 32.5609L67.4956 9.80521C67.7334 9.24065 68.2838 8.63767 68.8222 8.63882L80.1251 8.6597Z" fill="#52B260"/>
<path d="M282.077 70.2253C282.092 69.7669 275.022 68.9753 269.891 68.5658C257.17 67.5519 244.417 67.2819 244.399 67.9532C244.41 67.5463 257.881 69.8028 269.45 70.011C270.688 70.0337 282.059 70.7937 282.077 70.223L282.077 70.2253Z" fill="#52B260"/>
<path fill-rule="evenodd" clip-rule="evenodd" d="M279.793 9.14168C280.164 9.39484 279.931 10.0871 279.619 10.4853L258.047 38.1239C257.962 38.2319 257.844 38.515 257.826 38.6644L253.854 72.3816C253.766 73.1214 253.123 73.825 252.54 73.8249L240.591 73.7918C240.134 73.7899 239.883 73.3101 239.951 72.7941L242.511 53.4742C242.518 53.4245 242.51 53.3202 242.502 53.2836C242.487 53.2051 242.357 53.3151 242.309 53.3787L240.981 55.1647C240.721 55.5141 240.504 55.8946 240.333 56.2967L233.459 72.5193C233.214 73.0975 232.639 73.7469 232.064 73.7454L220.642 73.7162C220.247 73.7149 220.106 73.0452 220.265 72.6655L246.566 10.1022C246.791 9.56764 247.392 8.95143 247.9 8.95005L259.146 8.96103C259.374 8.96063 259.609 9.06445 259.699 9.24184C259.774 9.39193 259.836 9.77916 259.745 9.99894L251.919 28.732C251.813 28.9863 252.015 29.1994 252.18 28.9795L266.241 9.87459C266.561 9.43888 267.091 9.01097 267.594 9.0116L279.223 9.0212L279.629 9.01862C279.63 9.01861 279.631 9.01827 279.631 9.01766C279.632 9.0171 279.632 9.01608 279.633 9.01575C279.633 9.0156 279.634 9.01567 279.634 9.01596L279.793 9.14168Z" fill="#52B260"/>
</svg>
