<svg width="209" height="210" viewBox="0 0 209 210" fill="none" xmlns="http://www.w3.org/2000/svg">
<rect x="54" y="11.5" width="84" height="160" fill="url(#paint0_linear_12459_3121)"/>
<path d="M71.8438 21.4598H118.551L121.295 15.6451V0H76.0424L71.8438 1.86607V21.4598Z" fill="#52B260"/>
<rect x="71.8438" y="1.86523" width="46.6518" height="19.5938" fill="#5BC66B"/>
<path d="M80.122 6.19336H87.0214V7.79004H82.0263V10.6904H86.6552V12.2871H82.0263V15.1875H87.0507V16.7988H80.122V6.19336ZM92.4783 10.0898H92.5662L94.9246 6.19336H97.0925L93.8259 11.4961L97.1511 16.7988H94.9392L92.5662 12.9316H92.4783L90.1052 16.7988H87.908L91.2624 11.4961L87.9519 6.19336H90.1492L92.4783 10.0898ZM100.074 16.7988H98.1695V6.19336H100.074V16.7988ZM101.751 16.7988V6.19336H105.413C106.463 6.19336 107.369 6.40576 108.131 6.83057C108.892 7.25049 109.476 7.8584 109.881 8.6543C110.291 9.4502 110.496 10.3926 110.496 11.4814C110.496 12.5801 110.291 13.5298 109.881 14.3306C109.471 15.1265 108.88 15.7368 108.109 16.1616C107.337 16.5864 106.419 16.7988 105.355 16.7988H101.751ZM105.252 15.1436C106.361 15.1436 107.193 14.8384 107.75 14.228C108.311 13.6177 108.592 12.7021 108.592 11.4814C108.592 10.2705 108.316 9.3623 107.764 8.75684C107.213 8.15137 106.395 7.84863 105.311 7.84863H103.656V15.1436H105.252Z" fill="#A4EAAE"/>
<path d="M92.0603 176.377C96.5176 171.466 96.9958 166.458 96.6567 164.597C98.1088 164.547 101.774 163.494 103.473 163.27L103.647 167.389C103.5 170.83 107.762 171.763 109.911 171.8C114.326 172.089 122.75 173.342 121.125 176.041C119.093 179.415 108.862 179.766 98.6316 180.117L98.6316 180.117C90.4471 180.397 90.8405 177.741 92.0603 176.377Z" fill="url(#paint1_linear_12459_3121)"/>
<path d="M92.0603 176.377C96.5176 171.466 96.9958 166.458 96.6567 164.597C98.1088 164.547 101.774 163.494 103.473 163.27L103.647 167.389C103.5 170.83 107.762 171.763 109.911 171.8C114.326 172.089 122.75 173.342 121.125 176.041C119.093 179.415 108.862 179.766 98.6316 180.117L98.6316 180.117C90.4471 180.397 90.8405 177.741 92.0603 176.377Z" fill="url(#paint2_linear_12459_3121)"/>
<path d="M75.9862 160.93C75.9862 160.93 84.2693 154.554 83.6772 162.925C83.085 171.296 83.6685 178.329 83.6685 178.329L75.2246 178.223L75.9862 160.93Z" fill="url(#paint3_linear_12459_3121)"/>
<g filter="url(#filter0_dd_12459_3121)">
<path d="M121.158 139.323C127.881 138.428 133.67 140.246 132.95 134.835C132.23 129.424 126.196 125.763 119.473 126.657C112.749 127.552 107.883 132.664 108.603 138.075C109.323 143.486 114.435 140.217 121.158 139.323Z" fill="url(#paint4_linear_12459_3121)"/>
</g>
<path d="M95.0539 41.2232C103.08 40.6107 111.019 41.9318 118.307 45.2177C124.294 47.9156 130.294 52.2763 133.36 58.4729C139.859 71.6128 144.123 85.3121 141.603 100.128L141.603 100.126C141.014 100.042 140.008 99.9207 139.544 99.4614L138.682 96.2608C138.579 95.885 138.271 95.4691 138.238 95.0597C138.194 94.5166 137.645 94.5567 137.441 94.3522C136.127 93.0276 133.481 92.5386 130.991 91.1861C128.747 89.9677 126.261 91.5487 125.033 93.9199C124.029 95.859 122.756 97.4534 120.868 98.661C118.381 100.248 115.56 100.972 112.642 101.09C111.058 101.154 109.326 101.986 109.506 103.156C109.72 104.548 112.872 105.572 115.19 105.518C117.286 105.468 119.284 105.086 121.298 104.452C123.696 103.696 126.005 103.262 128.519 103.138C130.655 103.034 132.719 102.772 134.858 103.126L136.611 103.793C137.882 104.278 139.11 104.672 140.433 104.3C139.331 108.056 137.197 111.278 134.086 113.809C127.409 119.245 118.378 121.296 110.054 121.843C110.058 122.17 110.137 122.78 110.361 123.03C111.511 124.31 111.996 125.47 112.94 126.981C114.955 130.209 116.338 135.002 115.653 138.722C115.405 140.065 115.259 139.356 113.99 140.038L116.242 147.272C117.036 150.312 116.627 153.519 114.983 156.172C114.011 157.742 112.742 159.008 111.227 160.192C107.587 163.033 103.214 164.415 98.7668 164.933C96.364 165.213 93.8306 165.305 91.3984 165.077C89.0314 164.855 86.6459 164.57 84.3812 163.916C80.6506 163.43 77.8441 162.174 77.8146 162.161C77.8146 162.161 77.2226 161.759 76.9001 161.546C76.8489 161.518 68.9128 157.234 66.0855 153.541C64.5423 151.524 63.6716 149.255 63.5495 146.751C63.3441 142.483 66.5385 139.132 66.9493 137.524C67.2939 136.168 69.2127 133.593 69.7776 132.292C70.8749 129.762 71.0737 129.976 72.4711 126.786C73.3309 126.13 74.0005 123.918 74.4707 122.964L77.9808 116.769C70.8792 114.358 63.2539 110.346 58.4807 104.405C54.9356 99.9917 54.0709 96.8131 54.0738 91.2995C54.0813 80.8164 58.4547 70.5458 64.1878 62.0048C67.0992 57.6678 70.1072 53.5245 73.7616 49.7588C79.0601 44.302 87.7602 41.7796 95.0539 41.2232ZM118.304 88.9103C118.191 88.9181 118.08 88.913 117.971 88.8965C118.081 88.913 118.192 88.9185 118.305 88.9105C118.359 88.9067 118.413 88.9003 118.465 88.8919L118.304 88.9103ZM117.782 88.8552C117.842 88.872 117.903 88.8861 117.964 88.8956C117.903 88.8861 117.842 88.872 117.782 88.8552ZM117.239 88.5973C117.342 88.6678 117.449 88.724 117.558 88.7718C117.449 88.7241 117.342 88.6677 117.239 88.5973ZM120.784 84.136C120.745 86.3234 120.088 88.3489 118.769 88.8153C120.186 88.3149 120.839 86.0156 120.783 83.6483L120.784 84.136ZM116.675 88.0768C116.767 88.1866 116.865 88.2842 116.964 88.3743C116.927 88.3413 116.89 88.3092 116.855 88.2735L116.675 88.0768ZM136.655 76.8432C139.493 76.9194 139.724 88.0072 137.179 87.9247C137.138 87.9233 137.097 87.918 137.057 87.9117C137.097 87.9181 137.138 87.9234 137.18 87.9248C139.728 88.0109 139.497 76.9168 136.655 76.8432ZM118.072 77.8858C119.685 78.3122 120.601 80.7077 120.761 83.158L120.719 82.669C120.476 80.3969 119.579 78.283 118.074 77.8849C118.01 77.8682 117.947 77.8561 117.885 77.8476C117.947 77.8561 118.01 77.8691 118.072 77.8858ZM135.189 78.7953C134.984 79.7163 134.899 80.8713 134.93 82.0469C134.921 81.7111 134.922 81.377 134.932 81.0495C134.942 80.7218 134.962 80.4007 134.992 80.0912C135.021 79.7824 135.06 79.4851 135.109 79.2044C135.134 79.0637 135.161 78.9272 135.19 78.7954L135.189 78.7953ZM117.18 77.9212C116.824 78.0468 116.511 78.2996 116.261 78.6169C116.55 78.2511 116.924 77.9709 117.348 77.8722L117.18 77.9212Z" fill="url(#paint5_linear_12459_3121)"/>
<path d="M110.783 104.811C106.513 100.362 118.648 101.218 121.463 100.455C142.887 106.566 140.325 114.671 131.114 113.937C123.746 113.349 112.011 106.214 110.783 104.811Z" fill="#E07800"/>
<path d="M125.036 93.925C126.265 91.5505 128.754 89.9723 130.995 91.1901C133.158 92.365 135.437 92.8899 136.86 93.8754C136.873 93.8585 136.886 93.8416 136.9 93.8255C137.101 94.0295 138.194 94.4506 138.239 94.9935C138.178 95.4155 138.578 95.8831 138.68 96.2623C138.673 96.2713 138.665 96.2799 138.657 96.2888C138.665 96.2795 138.674 96.2709 138.682 96.2616L139.545 99.4623C140.009 99.9214 141.011 100.043 141.603 100.126C142.195 100.21 142.707 100.435 143.007 100.791C143.372 101.224 143.448 101.833 143.207 102.391C142.706 103.559 141.562 103.991 140.437 104.305C139.113 104.677 137.886 104.279 136.614 103.797L134.861 103.13C132.722 102.776 130.658 103.038 128.522 103.142C126.008 103.263 123.703 103.702 121.301 104.457C119.287 105.091 117.292 105.473 115.193 105.522C112.876 105.577 109.723 104.553 109.509 103.161C109.328 101.991 111.08 100.675 112.664 100.608C115.583 100.487 118.385 100.25 120.872 98.6652C122.759 97.4609 124.032 95.8637 125.036 93.925ZM134.953 94.9792C135.361 95.1195 135.594 95.5963 135.702 95.9759C135.835 96.4479 135.51 97.3482 134.943 97.3474C134.908 97.3472 134.874 97.3435 134.841 97.339C134.875 97.3438 134.909 97.3475 134.945 97.3476C135.512 97.3489 135.841 96.4454 135.704 95.9761C135.596 95.5963 135.361 95.1189 134.953 94.9792ZM137.928 96.901C137.825 96.9593 137.712 97.0098 137.592 97.0542L137.594 97.0564C137.713 97.0118 137.825 96.9594 137.928 96.901ZM138.467 96.4926L138.468 96.4927L138.467 96.4926Z" fill="#FF8800"/>
<path d="M89.7599 174.136C85.196 180.998 80.4112 182.426 77.0649 180.315C73.1608 177.852 74.1152 172.482 78.639 166.666C83.1628 160.851 87.8388 158.002 93.2479 161.129C96.7923 163.887 96.9527 169.353 89.7599 174.136Z" fill="#FF9D00"/>
<path d="M109.801 76.4375C112.725 77.6307 124.052 81.7206 119.5 83.5516C116.173 82.7364 109.577 84.2843 108.119 85.9127" stroke="url(#paint6_linear_12459_3121)" stroke-width="3.15234" stroke-linecap="round"/>
<path d="M140.918 79.9436C140.393 80.3467 137.445 81.8526 137.49 83.4695C138.003 83.9934 139.723 84.2425 140.678 85.266" stroke="url(#paint7_linear_12459_3121)" stroke-width="3.15234" stroke-linecap="round"/>
<path d="M78.5473 56.8615C74.1209 57.622 65.7017 60.1445 68.4635 64.5953C71.9158 70.1588 77.5308 61.3474 78.5473 56.8615Z" fill="url(#paint8_linear_12459_3121)"/>
<path d="M73.3278 73.8304C68.402 75.1776 59.1511 78.9579 62.7659 83.6914C67.2845 89.6083 72.6705 79.0189 73.3278 73.8304Z" fill="url(#paint9_linear_12459_3121)"/>
<path d="M0 47.1857L54 11.5V172.88L0 209.5V47.1857Z" fill="url(#paint10_linear_12459_3121)"/>
<g filter="url(#filter1_dd_12459_3121)">
<path d="M62.5325 130.994C54.1759 127.547 46.2243 127.605 48.7287 121.535C51.2332 115.465 60.0378 113.339 68.3944 116.787C76.751 120.234 81.4952 127.95 78.9907 134.02C76.4863 140.09 70.8891 134.442 62.5325 130.994Z" fill="url(#paint11_linear_12459_3121)"/>
</g>
<circle cx="180.075" cy="38.2542" r="28.9241" fill="#FFF098"/>
<circle cx="174.944" cy="73.243" r="5.1317" fill="#FFF098"/>
<circle cx="166.547" cy="79.7734" r="3.26562" fill="#FFF098"/>
<path d="M180.062 24.2578C172.336 24.2578 166.08 30.5278 166.08 38.2533C166.08 45.9789 172.336 52.2489 180.062 52.2489C187.801 52.2489 194.071 45.9789 194.071 38.2533C194.071 30.5278 187.801 24.2578 180.062 24.2578ZM180.076 49.4498C173.89 49.4498 168.879 44.4394 168.879 38.2533C168.879 32.0673 173.89 27.0569 180.076 27.0569C186.262 27.0569 191.272 32.0673 191.272 38.2533C191.272 44.4394 186.262 49.4498 180.076 49.4498ZM179.768 31.2556H179.684C179.124 31.2556 178.676 31.7034 178.676 32.2633V38.8692C178.676 39.359 178.928 39.8208 179.362 40.0728L185.17 43.5577C185.646 43.8376 186.262 43.6976 186.542 43.2218C186.835 42.7459 186.682 42.1161 186.192 41.8362L180.775 38.6172V32.2633C180.775 31.7034 180.328 31.2556 179.768 31.2556Z" fill="#F1C020"/>
<defs>
<filter id="filter0_dd_12459_3121" x="108.032" y="126.523" width="25.4785" height="16.5957" filterUnits="userSpaceOnUse" color-interpolation-filters="sRGB">
<feFlood flood-opacity="0" result="BackgroundImageFix"/>
<feColorMatrix in="SourceAlpha" type="matrix" values="0 0 0 0 0 0 0 0 0 0 0 0 0 0 0 0 0 0 127 0" result="hardAlpha"/>
<feOffset dy="2"/>
<feComposite in2="hardAlpha" operator="out"/>
<feColorMatrix type="matrix" values="0 0 0 0 0 0 0 0 0 0 0 0 0 0 0 0 0 0 0.1 0"/>
<feBlend mode="normal" in2="BackgroundImageFix" result="effect1_dropShadow_12459_3121"/>
<feColorMatrix in="SourceAlpha" type="matrix" values="0 0 0 0 0 0 0 0 0 0 0 0 0 0 0 0 0 0 127 0" result="hardAlpha"/>
<feOffset dy="1"/>
<feGaussianBlur stdDeviation="0.25"/>
<feComposite in2="hardAlpha" operator="out"/>
<feColorMatrix type="matrix" values="0 0 0 0 0 0 0 0 0 0 0 0 0 0 0 0 0 0 0.25 0"/>
<feBlend mode="normal" in2="effect1_dropShadow_12459_3121" result="effect2_dropShadow_12459_3121"/>
<feBlend mode="normal" in="SourceGraphic" in2="effect2_dropShadow_12459_3121" result="shape"/>
</filter>
<filter id="filter1_dd_12459_3121" x="47.7598" y="115.135" width="32.4004" height="23.5684" filterUnits="userSpaceOnUse" color-interpolation-filters="sRGB">
<feFlood flood-opacity="0" result="BackgroundImageFix"/>
<feColorMatrix in="SourceAlpha" type="matrix" values="0 0 0 0 0 0 0 0 0 0 0 0 0 0 0 0 0 0 127 0" result="hardAlpha"/>
<feOffset dy="2"/>
<feComposite in2="hardAlpha" operator="out"/>
<feColorMatrix type="matrix" values="0 0 0 0 0 0 0 0 0 0 0 0 0 0 0 0 0 0 0.1 0"/>
<feBlend mode="normal" in2="BackgroundImageFix" result="effect1_dropShadow_12459_3121"/>
<feColorMatrix in="SourceAlpha" type="matrix" values="0 0 0 0 0 0 0 0 0 0 0 0 0 0 0 0 0 0 127 0" result="hardAlpha"/>
<feOffset dy="1"/>
<feGaussianBlur stdDeviation="0.25"/>
<feComposite in2="hardAlpha" operator="out"/>
<feColorMatrix type="matrix" values="0 0 0 0 0 0 0 0 0 0 0 0 0 0 0 0 0 0 0.25 0"/>
<feBlend mode="normal" in2="effect1_dropShadow_12459_3121" result="effect2_dropShadow_12459_3121"/>
<feBlend mode="normal" in="SourceGraphic" in2="effect2_dropShadow_12459_3121" result="shape"/>
</filter>
<linearGradient id="paint0_linear_12459_3121" x1="54" y1="91.5" x2="138" y2="91.5" gradientUnits="userSpaceOnUse">
<stop stop-color="#787E89"/>
<stop offset="1" stop-color="#A8B1C2"/>
</linearGradient>
<linearGradient id="paint1_linear_12459_3121" x1="105.525" y1="159.608" x2="102.312" y2="180.35" gradientUnits="userSpaceOnUse">
<stop stop-color="#FFB53D"/>
<stop offset="1" stop-color="#FDE800"/>
</linearGradient>
<linearGradient id="paint2_linear_12459_3121" x1="105.525" y1="180.749" x2="105.474" y2="169.249" gradientUnits="userSpaceOnUse">
<stop stop-color="#FFB53D"/>
<stop offset="1" stop-color="#FDE800" stop-opacity="0"/>
</linearGradient>
<linearGradient id="paint3_linear_12459_3121" x1="78.9474" y1="154.409" x2="67.2017" y2="170.855" gradientUnits="userSpaceOnUse">
<stop stop-color="#FFB53D"/>
<stop offset="1" stop-color="#FDE800"/>
</linearGradient>
<linearGradient id="paint4_linear_12459_3121" x1="118.208" y1="130.588" x2="128.126" y2="141.988" gradientUnits="userSpaceOnUse">
<stop stop-color="#FFED2A"/>
<stop offset="1" stop-color="#FFC62A"/>
</linearGradient>
<linearGradient id="paint5_linear_12459_3121" x1="84.4915" y1="32.3353" x2="107.419" y2="87.4705" gradientUnits="userSpaceOnUse">
<stop stop-color="#FFC62A"/>
<stop offset="1" stop-color="#FFED2A"/>
</linearGradient>
<linearGradient id="paint6_linear_12459_3121" x1="115.545" y1="77.4572" x2="113.863" y2="86.9324" gradientUnits="userSpaceOnUse">
<stop stop-color="#565656"/>
<stop offset="1" stop-color="#111311"/>
</linearGradient>
<linearGradient id="paint7_linear_12459_3121" x1="139.4" y1="79.8366" x2="139.026" y2="85.1495" gradientUnits="userSpaceOnUse">
<stop stop-color="#565656"/>
<stop offset="1" stop-color="#111311"/>
</linearGradient>
<linearGradient id="paint8_linear_12459_3121" x1="78.899" y1="57.3401" x2="68.6453" y2="64.8756" gradientUnits="userSpaceOnUse">
<stop stop-color="#7CBAFF"/>
<stop offset="1" stop-color="#489EFF"/>
</linearGradient>
<linearGradient id="paint9_linear_12459_3121" x1="73.7784" y1="74.3334" x2="63.0024" y2="83.9886" gradientUnits="userSpaceOnUse">
<stop stop-color="#7CBAFF"/>
<stop offset="1" stop-color="#489EFF"/>
</linearGradient>
<linearGradient id="paint10_linear_12459_3121" x1="54" y1="83.4151" x2="-0.169545" y2="137.415" gradientUnits="userSpaceOnUse">
<stop stop-color="#D9D9D9"/>
<stop offset="1" stop-color="#BCBCBC"/>
</linearGradient>
<linearGradient id="paint11_linear_12459_3121" x1="68.8669" y1="121.835" x2="53.8801" y2="133.038" gradientUnits="userSpaceOnUse">
<stop stop-color="#FFED2A"/>
<stop offset="1" stop-color="#FFC62A"/>
</linearGradient>
</defs>
</svg>
