<svg width="9" height="10" viewBox="0 0 9 10" fill="none" xmlns="http://www.w3.org/2000/svg">
<path d="M3.05566 8.57129L2.71484 8.87109H6.28613L5.95801 8.57129H3.05566ZM1.77832 5.73828C1.42641 5.73842 1.14062 6.0224 1.14062 6.37305C1.14065 6.72368 1.42642 7.00767 1.77832 7.00781C2.13034 7.00781 2.416 6.72376 2.41602 6.37305C2.41602 6.02231 2.13035 5.73828 1.77832 5.73828ZM7.22168 5.73828C6.86965 5.73828 6.58398 6.02231 6.58398 6.37305C6.584 6.72376 6.86966 7.00781 7.22168 7.00781C7.57359 7.00768 7.85935 6.72368 7.85938 6.37305C7.85938 6.0224 7.5736 5.73842 7.22168 5.73828ZM2.15723 0.967773C1.48348 0.967773 0.9375 1.51136 0.9375 2.18262V3.82031C0.937582 4.08093 1.14991 4.29297 1.41211 4.29297L7.58789 4.29199C7.85014 4.29199 8.0625 4.08062 8.0625 3.81934V2.18262C8.0625 1.51136 7.51652 0.967773 6.84277 0.967773H2.15723ZM8.62598 10H7.58789L7.05957 9.54199H1.94043L1.41309 10H0.375L2.02148 8.57129H1.54004C1.4931 8.57129 1.44674 8.5686 1.40039 8.56445L0.943359 8.45215C0.389149 8.21932 0 7.67302 0 7.03613V1.53516C0 0.68736 0.690077 0 1.54102 0H7.45996C8.31086 4.11247e-05 9.00098 0.687385 9.00098 1.53516V7.03613C9.00098 7.68725 8.59298 8.24246 8.01855 8.46582L7.55469 8.56641C7.52328 8.56819 7.49098 8.57129 7.45898 8.57129H6.97949L8.62598 10Z" fill="white"/>
</svg>
